<svg width="365" height="263" viewBox="0 0 365 263" fill="none" xmlns="http://www.w3.org/2000/svg">
<g clip-path="url(#clip0)">
<path d="M79.2173 233.135C89.6797 233.135 98.1611 222.518 98.1611 209.421C98.1611 196.324 89.6797 185.707 79.2173 185.707C68.7549 185.707 60.2734 196.324 60.2734 209.421C60.2734 222.518 68.7549 233.135 79.2173 233.135Z" fill="#F2F2F2"/>
<path d="M82.2974 229.665C92.7598 229.665 101.241 219.048 101.241 205.951C101.241 192.854 92.7598 182.237 82.2974 182.237C71.835 182.237 63.3535 192.854 63.3535 205.951C63.3535 219.048 71.835 229.665 82.2974 229.665Z" fill="#72B874"/>
<path d="M331.94 179.712H97.554V180.512H331.94V179.712Z" fill="#3F3D56"/>
<path d="M218.943 8.03583H135.75V5.8894H98.0273V8.03583H14.4916C13.7526 8.03583 13.0209 8.21803 12.3381 8.57204C11.6554 8.92605 11.035 9.44494 10.5125 10.0991C9.98992 10.7532 9.57542 11.5297 9.29261 12.3844C9.00981 13.2391 8.86426 14.1551 8.86426 15.0801V157.68C8.86426 159.549 9.45714 161.34 10.5125 162.662C11.5678 163.983 12.9991 164.725 14.4916 164.725H218.943C220.435 164.725 221.867 163.983 222.922 162.662C223.977 161.34 224.57 159.549 224.57 157.68V15.0801C224.57 14.1551 224.425 13.2391 224.142 12.3844C223.859 11.5297 223.444 10.7532 222.922 10.0991C222.399 9.44494 221.779 8.92605 221.096 8.57204C220.414 8.21803 219.682 8.03583 218.943 8.03583V8.03583Z" fill="#3F3D56"/>
<path d="M217.026 20.4849H16.4089V162.149H217.026V20.4849Z" fill="#72B874"/>
<path d="M116.546 16.6214C117.682 16.6214 118.604 15.4682 118.604 14.0457C118.604 12.6232 117.682 11.47 116.546 11.47C115.41 11.47 114.488 12.6232 114.488 14.0457C114.488 15.4682 115.41 16.6214 116.546 16.6214Z" fill="#72B874"/>
<path opacity="0.1" d="M159.653 162.149H16.4089V20.4851L159.653 162.149Z" fill="black"/>
<path d="M47.7995 151.548C58.4497 151.548 67.0834 140.741 67.0834 127.409C67.0834 114.077 58.4497 103.269 47.7995 103.269C37.1493 103.269 28.5156 114.077 28.5156 127.409C28.5156 140.741 37.1493 151.548 47.7995 151.548Z" fill="#F2F2F2"/>
<path d="M182.095 96.8855H163.355V101.787H182.095V96.8855Z" fill="#3F3D56"/>
<path d="M204.751 58.7217H140.7V60.8224H204.751V58.7217Z" fill="#3F3D56"/>
<path d="M204.751 65.374H140.7V67.4748H204.751V65.374Z" fill="#3F3D56"/>
<path d="M204.751 72.0264H140.7V74.1271H204.751V72.0264Z" fill="#3F3D56"/>
<path d="M204.751 78.679H140.7V80.7797H204.751V78.679Z" fill="#3F3D56"/>
<path d="M204.751 85.3313H140.7V87.432H204.751V85.3313Z" fill="#3F3D56"/>
<path d="M204.751 23.3589H196.919V33.1624H204.751V23.3589Z" fill="#F2F2F2"/>
<path d="M208.387 37.7141H198.877V25.8098H208.387V37.7141ZM199.29 37.1966H207.973V26.3274H199.29V37.1966Z" fill="#3F3D56"/>
<path d="M230.203 159.573H210.624V157.807C210.624 157.761 210.617 157.716 210.603 157.673C210.589 157.631 210.568 157.592 210.542 157.56C210.516 157.527 210.486 157.502 210.452 157.484C210.418 157.466 210.381 157.457 210.345 157.457H203.632C203.595 157.457 203.559 157.466 203.525 157.484C203.491 157.502 203.46 157.527 203.434 157.56C203.408 157.592 203.387 157.631 203.373 157.673C203.359 157.716 203.352 157.761 203.352 157.807V159.573H199.157V157.807C199.157 157.761 199.149 157.716 199.135 157.673C199.121 157.631 199.101 157.592 199.075 157.56C199.049 157.527 199.018 157.502 198.984 157.484C198.95 157.466 198.914 157.457 198.877 157.457H192.164C192.127 157.457 192.091 157.466 192.057 157.484C192.023 157.502 191.992 157.527 191.966 157.56C191.94 157.592 191.92 157.631 191.906 157.673C191.892 157.716 191.884 157.761 191.884 157.807V159.573H187.689V157.807C187.689 157.761 187.682 157.716 187.668 157.673C187.654 157.631 187.633 157.592 187.607 157.56C187.581 157.527 187.55 157.502 187.516 157.484C187.482 157.466 187.446 157.457 187.409 157.457H180.697C180.66 157.457 180.623 157.466 180.59 157.484C180.556 157.502 180.525 157.527 180.499 157.56C180.473 157.592 180.452 157.631 180.438 157.673C180.424 157.716 180.417 157.761 180.417 157.807V159.573H176.221V157.807C176.221 157.761 176.214 157.716 176.2 157.673C176.186 157.631 176.165 157.592 176.139 157.56C176.113 157.527 176.083 157.502 176.049 157.484C176.015 157.466 175.978 157.457 175.942 157.457H169.229C169.192 157.457 169.156 157.466 169.122 157.484C169.088 157.502 169.057 157.527 169.031 157.56C169.005 157.592 168.985 157.631 168.97 157.673C168.956 157.716 168.949 157.761 168.949 157.807V159.573H164.754V157.807C164.754 157.761 164.746 157.716 164.732 157.673C164.718 157.631 164.698 157.592 164.672 157.56C164.646 157.527 164.615 157.502 164.581 157.484C164.547 157.466 164.511 157.457 164.474 157.457H157.761C157.725 157.457 157.688 157.466 157.654 157.484C157.62 157.502 157.589 157.527 157.563 157.56C157.538 157.592 157.517 157.631 157.503 157.673C157.489 157.716 157.482 157.761 157.482 157.807V159.573H153.286V157.807C153.286 157.761 153.279 157.716 153.265 157.673C153.251 157.631 153.23 157.592 153.204 157.56C153.178 157.527 153.147 157.502 153.113 157.484C153.079 157.466 153.043 157.457 153.006 157.457H146.294C146.257 157.457 146.221 157.466 146.187 157.484C146.153 157.502 146.122 157.527 146.096 157.56C146.07 157.592 146.049 157.631 146.035 157.673C146.021 157.716 146.014 157.761 146.014 157.807V159.573H141.818V157.807C141.818 157.761 141.811 157.716 141.797 157.673C141.783 157.631 141.762 157.592 141.737 157.56C141.711 157.527 141.68 157.502 141.646 157.484C141.612 157.466 141.575 157.457 141.539 157.457H88.9554C88.9187 157.457 88.8823 157.466 88.8484 157.484C88.8145 157.502 88.7836 157.527 88.7576 157.56C88.7317 157.592 88.7111 157.631 88.697 157.673C88.683 157.716 88.6757 157.761 88.6757 157.807V159.573H84.4803V157.807C84.4803 157.761 84.473 157.716 84.459 157.673C84.4449 157.631 84.4243 157.592 84.3983 157.56C84.3724 157.527 84.3415 157.502 84.3076 157.484C84.2737 157.466 84.2373 157.457 84.2006 157.457H77.4878C77.4511 157.457 77.4147 157.466 77.3807 157.484C77.3468 157.502 77.316 157.527 77.29 157.56C77.264 157.592 77.2434 157.631 77.2294 157.673C77.2153 157.716 77.2081 157.761 77.2081 157.807V159.573H73.0126V157.807C73.0126 157.761 73.0054 157.716 72.9913 157.673C72.9773 157.631 72.9567 157.592 72.9307 157.56C72.9047 157.527 72.8739 157.502 72.8399 157.484C72.806 157.466 72.7696 157.457 72.7329 157.457H66.0202C65.9834 157.457 65.947 157.466 65.9131 157.484C65.8792 157.502 65.8483 157.527 65.8224 157.56C65.7964 157.592 65.7758 157.631 65.7617 157.673C65.7477 157.716 65.7405 157.761 65.7405 157.807V159.573H61.545V157.807C61.545 157.761 61.5377 157.716 61.5237 157.673C61.5096 157.631 61.489 157.592 61.4631 157.56C61.4371 157.527 61.4062 157.502 61.3723 157.484C61.3384 157.466 61.302 157.457 61.2653 157.457H54.5525C54.5158 157.457 54.4794 157.466 54.4455 157.484C54.4115 157.502 54.3807 157.527 54.3547 157.56C54.3288 157.592 54.3082 157.631 54.2941 157.673C54.28 157.716 54.2728 157.761 54.2728 157.807V159.573H50.0774V157.807C50.0774 157.761 50.0701 157.716 50.0561 157.673C50.042 157.631 50.0214 157.592 49.9954 157.56C49.9695 157.527 49.9386 157.502 49.9047 157.484C49.8708 157.466 49.8344 157.457 49.7977 157.457H43.0849C43.0481 157.457 43.0118 157.466 42.9778 157.484C42.9439 157.502 42.9131 157.527 42.8871 157.56C42.8611 157.592 42.8405 157.631 42.8265 157.673C42.8124 157.716 42.8052 157.761 42.8052 157.807V159.573H38.6097V157.807C38.6097 157.761 38.6025 157.716 38.5884 157.673C38.5744 157.631 38.5538 157.592 38.5278 157.56C38.5018 157.527 38.471 157.502 38.437 157.484C38.4031 157.466 38.3667 157.457 38.33 157.457H31.6172C31.5805 157.457 31.5441 157.466 31.5102 157.484C31.4763 157.502 31.4454 157.527 31.4195 157.56C31.3935 157.592 31.3729 157.631 31.3588 157.673C31.3448 157.716 31.3375 157.761 31.3375 157.807V159.573H27.1421V157.807C27.1421 157.761 27.1348 157.716 27.1208 157.673C27.1067 157.631 27.0861 157.592 27.0601 157.56C27.0342 157.527 27.0033 157.502 26.9694 157.484C26.9355 157.466 26.8991 157.457 26.8624 157.457H20.1496C20.1129 157.457 20.0765 157.466 20.0426 157.484C20.0086 157.502 19.9778 157.527 19.9518 157.56C19.9259 157.592 19.9053 157.631 19.8912 157.673C19.8771 157.716 19.8699 157.761 19.8699 157.807V159.573H7.00378C5.22344 159.573 3.51603 160.459 2.25714 162.034C0.998254 163.61 0.291017 165.748 0.291016 167.976V171.776C0.291021 174.005 0.998259 176.142 2.25715 177.718C3.51603 179.294 5.22345 180.179 7.00378 180.179H230.203C231.983 180.179 233.691 179.294 234.95 177.718C236.209 176.142 236.916 174.005 236.916 171.776V167.976C236.916 165.748 236.209 163.61 234.95 162.034C233.691 160.459 231.983 159.573 230.203 159.573Z" fill="#3F3D56"/>
<path d="M52.4673 142.486C47.6608 142.486 42.9623 140.702 38.9658 137.359C34.9694 134.016 31.8545 129.265 30.0152 123.706C28.1758 118.148 27.6946 112.031 28.6323 106.13C29.5699 100.229 31.8845 94.808 35.2832 90.5535C38.6819 86.299 43.0121 83.4017 47.7262 82.2279C52.4403 81.0541 57.3267 81.6565 61.7673 83.959C66.2079 86.2615 70.0034 90.1607 72.6737 95.1634C75.344 100.166 76.7693 106.048 76.7693 112.065C76.762 120.13 74.1993 127.862 69.6434 133.566C65.0874 139.269 58.9104 142.477 52.4673 142.486ZM52.4673 82.4439C47.7873 82.4439 43.2124 84.1811 39.3211 87.4359C35.4299 90.6906 32.397 95.3167 30.606 100.729C28.8151 106.142 28.3465 112.097 29.2595 117.843C30.1725 123.589 32.4261 128.867 35.7354 133.01C39.0447 137.152 43.2609 139.973 47.851 141.116C52.4411 142.259 57.1988 141.672 61.5225 139.43C65.8463 137.189 69.5419 133.392 72.1419 128.521C74.742 123.65 76.1298 117.923 76.1298 112.065C76.1227 104.211 73.6274 96.6824 69.1914 91.1294C64.7553 85.5764 58.7408 82.4528 52.4673 82.4439V82.4439Z" fill="#3F3D56"/>
<path d="M269.267 13.5959H187.727V14.3965H269.267V13.5959Z" fill="#3F3D56"/>
<path d="M364.556 224.943H130.17V225.744H364.556V224.943Z" fill="#3F3D56"/>
<path d="M143.44 261.769H61.9004V262.57H143.44V261.769Z" fill="#3F3D56"/>
<path d="M159.853 220.723H150.899V231.931H159.853V220.723Z" fill="#72B874"/>
<path d="M165.289 225.526H154.417V211.917H165.289V225.526ZM154.89 224.935H164.816V212.509H154.89V224.935Z" fill="#3F3D56"/>
<path d="M263.776 9.37573H254.823V20.5835H263.776V9.37573Z" fill="#72B874"/>
<path d="M269.212 14.1791H258.34V0.56958H269.212V14.1791ZM258.813 13.5874H268.739V1.1613H258.813V13.5874Z" fill="#3F3D56"/>
<path d="M353.949 220.723H344.996V231.931H353.949V220.723Z" fill="#72B874"/>
<path d="M359.385 225.526H348.513V211.917H359.385V225.526ZM348.986 224.935H358.912V212.509H348.986V224.935Z" fill="#3F3D56"/>
<path d="M338.336 93.4176H337.575V67.3348C337.575 65.3524 337.263 63.3893 336.657 61.5578C336.051 59.7262 335.163 58.0621 334.043 56.6603C332.923 55.2585 331.594 54.1465 330.131 53.3879C328.667 52.6292 327.099 52.2388 325.516 52.2388H281.371C279.788 52.2388 278.219 52.6292 276.756 53.3879C275.293 54.1465 273.964 55.2585 272.844 56.6603C271.724 58.0621 270.836 59.7262 270.23 61.5578C269.624 63.3893 269.312 65.3524 269.312 67.3348V210.427C269.312 212.41 269.624 214.373 270.23 216.204C270.836 218.036 271.724 219.7 272.844 221.102C273.964 222.503 275.293 223.615 276.756 224.374C278.219 225.133 279.788 225.523 281.371 225.523H325.516C327.099 225.523 328.667 225.133 330.131 224.374C331.594 223.615 332.923 222.503 334.043 221.102C335.163 219.7 336.051 218.036 336.657 216.204C337.263 214.373 337.575 212.41 337.575 210.427V111.984H338.336V93.4176Z" fill="#3F3D56"/>
<path d="M335.007 68.2221V211.106C335.007 214.096 334.059 216.964 332.37 219.078C330.681 221.193 328.391 222.381 326.002 222.382H281.645C279.256 222.381 276.966 221.193 275.277 219.078C273.588 216.964 272.64 214.096 272.64 211.106V68.2221C272.64 65.2327 273.589 62.3658 275.278 60.252C276.966 58.1382 279.257 56.9505 281.645 56.9502H287.026C286.761 57.7634 286.66 58.6457 286.732 59.5193C286.804 60.3929 287.046 61.231 287.437 61.9598C287.829 62.6886 288.357 63.2858 288.977 63.6986C289.596 64.1115 290.287 64.3274 290.988 64.3273H316.278C316.98 64.3274 317.671 64.1115 318.29 63.6986C318.909 63.2858 319.437 62.6886 319.829 61.9598C320.22 61.231 320.463 60.3929 320.534 59.5193C320.606 58.6457 320.505 57.7634 320.24 56.9502H326.002C328.39 56.9505 330.68 58.1382 332.369 60.252C334.058 62.3658 335.006 65.2327 335.007 68.2221V68.2221Z" fill="#72B874"/>
<path d="M310.431 151.162H297.217V156.063H310.431V151.162Z" fill="#3F3D56"/>
<path d="M326.405 112.998H281.242V115.099H326.405V112.998Z" fill="#3F3D56"/>
<path d="M326.405 119.65H281.242V121.751H326.405V119.65Z" fill="#3F3D56"/>
<path d="M326.405 126.303H281.242V128.403H326.405V126.303Z" fill="#3F3D56"/>
<path d="M326.405 132.955H281.242V135.056H326.405V132.955Z" fill="#3F3D56"/>
<path d="M326.405 139.607H281.242V141.708H326.405V139.607Z" fill="#3F3D56"/>
<path d="M305.401 85.1001H297.57V94.9036H305.401V85.1001Z" fill="#F2F2F2"/>
<path d="M300.568 87.5515V99.4558H310.078V87.5515H300.568ZM309.665 98.9395H300.98V88.0679H309.665V98.9395Z" fill="#3F3D56"/>
<path opacity="0.1" d="M335.007 195.847V211.106C335.007 214.096 334.059 216.963 332.37 219.078C330.681 221.193 328.391 222.381 326.002 222.381H281.645C279.256 222.381 276.966 221.193 275.277 219.078C273.588 216.963 272.64 214.096 272.64 211.106V134.168L310.011 171.126L310.65 171.758L317.602 178.631L318.251 179.275L335.007 195.847Z" fill="black"/>
<path d="M299.986 217.751C307.733 217.751 314.014 209.889 314.014 200.191C314.014 190.494 307.733 182.632 299.986 182.632C292.239 182.632 285.959 190.494 285.959 200.191C285.959 209.889 292.239 217.751 299.986 217.751Z" fill="#F2F2F2"/>
<path d="M102.67 262.57C97.1679 262.57 91.7893 260.527 87.2144 256.701C82.6395 252.874 79.0738 247.435 76.9682 241.072C74.8626 234.709 74.3117 227.707 75.3851 220.952C76.4586 214.196 79.1081 207.991 82.9987 203.121C86.8893 198.251 91.8463 194.934 97.2427 193.59C102.639 192.247 108.233 192.936 113.316 195.572C118.399 198.208 122.744 202.671 125.801 208.398C128.858 214.125 130.489 220.858 130.489 227.745C130.481 236.978 127.547 245.83 122.332 252.358C117.117 258.887 110.046 262.559 102.67 262.57ZM102.67 193.722C97.2943 193.722 92.0394 195.717 87.5697 199.456C83.1 203.194 79.6163 208.508 77.5591 214.725C75.5019 220.942 74.9636 227.783 76.0124 234.383C77.0611 240.983 79.6498 247.046 83.4509 251.804C87.2521 256.562 92.0951 259.803 97.3675 261.115C102.64 262.428 108.105 261.754 113.071 259.179C118.038 256.604 122.283 252.243 125.269 246.648C128.256 241.053 129.85 234.475 129.85 227.745C129.842 218.725 126.976 210.077 121.88 203.698C116.785 197.32 109.876 193.732 102.67 193.722V193.722Z" fill="#3F3D56"/>
<path d="M304.121 213.736C300.643 213.736 297.243 212.444 294.35 210.025C291.458 207.606 289.204 204.168 287.873 200.145C286.542 196.122 286.194 191.696 286.872 187.425C287.551 183.155 289.226 179.232 291.685 176.153C294.145 173.074 297.279 170.977 300.69 170.128C304.102 169.278 307.638 169.714 310.851 171.381C314.065 173.047 316.812 175.869 318.744 179.489C320.677 183.11 321.708 187.366 321.708 191.72C321.703 197.557 319.848 203.153 316.551 207.28C313.254 211.407 308.784 213.729 304.121 213.736V213.736ZM304.121 170.505C300.769 170.505 297.493 171.75 294.706 174.081C291.919 176.412 289.746 179.725 288.464 183.602C287.181 187.478 286.845 191.744 287.499 195.859C288.153 199.974 289.767 203.754 292.138 206.721C294.508 209.688 297.527 211.709 300.815 212.527C304.102 213.346 307.51 212.926 310.607 211.32C313.703 209.714 316.35 206.995 318.212 203.507C320.075 200.018 321.069 195.916 321.069 191.72C321.064 186.096 319.276 180.703 316.099 176.726C312.922 172.749 308.614 170.512 304.121 170.505Z" fill="#3F3D56"/>
</g>
<defs>
<clipPath id="clip0">
<rect x="0.291016" y="0.56958" width="364.265" height="262" fill="white"/>
</clipPath>
</defs>
</svg>
