<svg width="365" height="239" viewBox="0 0 365 239" fill="none" xmlns="http://www.w3.org/2000/svg">
<g clip-path="url(#clip0)">
<path d="M79.2173 211.921C89.6797 211.921 98.1611 202.273 98.1611 190.37C98.1611 178.468 89.6797 168.82 79.2173 168.82C68.7549 168.82 60.2734 178.468 60.2734 190.37C60.2734 202.273 68.7549 211.921 79.2173 211.921Z" fill="#F2F2F2"/>
<path d="M82.2974 208.768C92.7598 208.768 101.241 199.119 101.241 187.217C101.241 175.315 92.7598 165.666 82.2974 165.666C71.835 165.666 63.3535 175.315 63.3535 187.217C63.3535 199.119 71.835 208.768 82.2974 208.768Z" fill="#72B874"/>
<path d="M331.94 163.371H97.554V164.099H331.94V163.371Z" fill="#3F3D56"/>
<path d="M218.943 7.35469H135.75V5.40405H98.0273V7.35469H14.4916C13.7526 7.35469 13.0209 7.52027 12.3381 7.84199C11.6554 8.16371 11.035 8.63526 10.5125 9.22972C9.98992 9.82418 9.57542 10.5299 9.29261 11.3066C9.00981 12.0833 8.86426 12.9158 8.86426 13.7564V143.349C8.86426 145.047 9.45714 146.675 10.5125 147.876C11.5678 149.077 12.9991 149.751 14.4916 149.751H218.943C220.435 149.751 221.867 149.077 222.922 147.876C223.977 146.675 224.57 145.047 224.57 143.349V13.7564C224.57 12.9158 224.425 12.0833 224.142 11.3066C223.859 10.5299 223.444 9.82418 222.922 9.22972C222.399 8.63526 221.779 8.16371 221.096 7.84199C220.414 7.52027 219.682 7.35469 218.943 7.35469Z" fill="#3F3D56"/>
<path d="M217.026 18.6682H16.4089V147.41H217.026V18.6682Z" fill="#72B874"/>
<path d="M116.546 15.1571C117.682 15.1571 118.604 14.1091 118.604 12.8163C118.604 11.5236 117.682 10.4756 116.546 10.4756C115.41 10.4756 114.488 11.5236 114.488 12.8163C114.488 14.1091 115.41 15.1571 116.546 15.1571Z" fill="#72B874"/>
<path opacity="0.1" d="M159.653 147.41H16.4089V18.6685L159.653 147.41Z" fill="black"/>
<path d="M47.7995 137.776C58.4497 137.776 67.0834 127.955 67.0834 115.839C67.0834 103.723 58.4497 93.9011 47.7995 93.9011C37.1493 93.9011 28.5156 103.723 28.5156 115.839C28.5156 127.955 37.1493 137.776 47.7995 137.776Z" fill="#F2F2F2"/>
<path d="M182.095 88.0999H163.355V92.5545H182.095V88.0999Z" fill="#3F3D56"/>
<path d="M204.751 53.4172H140.7V55.3264H204.751V53.4172Z" fill="#3F3D56"/>
<path d="M204.751 59.4629H140.7V61.372H204.751V59.4629Z" fill="#3F3D56"/>
<path d="M204.751 65.5083H140.7V67.4174H204.751V65.5083Z" fill="#3F3D56"/>
<path d="M204.751 71.554H140.7V73.4631H204.751V71.554Z" fill="#3F3D56"/>
<path d="M204.751 77.5996H140.7V79.5087H204.751V77.5996Z" fill="#3F3D56"/>
<path d="M204.751 21.2803H196.919V30.1896H204.751V21.2803Z" fill="#F2F2F2"/>
<path d="M208.387 34.326H198.877V23.5076H208.387V34.326ZM199.29 33.8556H207.973V23.978H199.29V33.8556Z" fill="#3F3D56"/>
<path d="M230.203 145.069H210.624V143.465C210.624 143.423 210.617 143.382 210.603 143.343C210.589 143.304 210.568 143.269 210.542 143.24C210.516 143.21 210.486 143.187 210.452 143.171C210.418 143.155 210.381 143.146 210.345 143.146H203.632C203.595 143.146 203.559 143.155 203.525 143.171C203.491 143.187 203.46 143.21 203.434 143.24C203.408 143.269 203.387 143.304 203.373 143.343C203.359 143.382 203.352 143.423 203.352 143.465V145.069H199.157V143.465C199.157 143.423 199.149 143.382 199.135 143.343C199.121 143.304 199.101 143.269 199.075 143.24C199.049 143.21 199.018 143.187 198.984 143.171C198.95 143.155 198.914 143.146 198.877 143.146H192.164C192.127 143.146 192.091 143.155 192.057 143.171C192.023 143.187 191.992 143.21 191.966 143.24C191.94 143.269 191.92 143.304 191.906 143.343C191.892 143.382 191.884 143.423 191.884 143.465V145.069H187.689V143.465C187.689 143.423 187.682 143.382 187.668 143.343C187.654 143.304 187.633 143.269 187.607 143.24C187.581 143.21 187.55 143.187 187.516 143.171C187.482 143.155 187.446 143.146 187.409 143.146H180.697C180.66 143.146 180.623 143.155 180.59 143.171C180.556 143.187 180.525 143.21 180.499 143.24C180.473 143.269 180.452 143.304 180.438 143.343C180.424 143.382 180.417 143.423 180.417 143.465V145.069H176.221V143.465C176.221 143.423 176.214 143.382 176.2 143.343C176.186 143.304 176.165 143.269 176.139 143.24C176.113 143.21 176.083 143.187 176.049 143.171C176.015 143.155 175.978 143.146 175.942 143.146H169.229C169.192 143.146 169.156 143.155 169.122 143.171C169.088 143.187 169.057 143.21 169.031 143.24C169.005 143.269 168.985 143.304 168.97 143.343C168.956 143.382 168.949 143.423 168.949 143.465V145.069H164.754V143.465C164.754 143.423 164.746 143.382 164.732 143.343C164.718 143.304 164.698 143.269 164.672 143.24C164.646 143.21 164.615 143.187 164.581 143.171C164.547 143.155 164.511 143.146 164.474 143.146H157.761C157.725 143.146 157.688 143.155 157.654 143.171C157.62 143.187 157.589 143.21 157.563 143.24C157.538 143.269 157.517 143.304 157.503 143.343C157.489 143.382 157.482 143.423 157.482 143.465V145.069H153.286V143.465C153.286 143.423 153.279 143.382 153.265 143.343C153.251 143.304 153.23 143.269 153.204 143.24C153.178 143.21 153.147 143.187 153.113 143.171C153.079 143.155 153.043 143.146 153.006 143.146H146.294C146.257 143.146 146.221 143.155 146.187 143.171C146.153 143.187 146.122 143.21 146.096 143.24C146.07 143.269 146.049 143.304 146.035 143.343C146.021 143.382 146.014 143.423 146.014 143.465V145.069H141.818V143.465C141.818 143.423 141.811 143.382 141.797 143.343C141.783 143.304 141.762 143.269 141.737 143.24C141.711 143.21 141.68 143.187 141.646 143.171C141.612 143.155 141.575 143.146 141.539 143.146H88.9554C88.9187 143.146 88.8823 143.155 88.8484 143.171C88.8145 143.187 88.7836 143.21 88.7576 143.24C88.7317 143.269 88.7111 143.304 88.697 143.343C88.683 143.382 88.6757 143.423 88.6757 143.465V145.069H84.4803V143.465C84.4803 143.423 84.473 143.382 84.459 143.343C84.4449 143.304 84.4243 143.269 84.3983 143.24C84.3724 143.21 84.3415 143.187 84.3076 143.171C84.2737 143.155 84.2373 143.146 84.2006 143.146H77.4878C77.4511 143.146 77.4147 143.155 77.3807 143.171C77.3468 143.187 77.316 143.21 77.29 143.24C77.264 143.269 77.2434 143.304 77.2294 143.343C77.2153 143.382 77.2081 143.423 77.2081 143.465V145.069H73.0126V143.465C73.0126 143.423 73.0054 143.382 72.9913 143.343C72.9773 143.304 72.9567 143.269 72.9307 143.24C72.9047 143.21 72.8739 143.187 72.84 143.171C72.806 143.155 72.7696 143.146 72.7329 143.146H66.0201C65.9834 143.146 65.947 143.155 65.9131 143.171C65.8792 143.187 65.8483 143.21 65.8224 143.24C65.7964 143.269 65.7758 143.304 65.7617 143.343C65.7477 143.382 65.7404 143.423 65.7404 143.465V145.069H61.545V143.465C61.545 143.423 61.5377 143.382 61.5237 143.343C61.5096 143.304 61.489 143.269 61.4631 143.24C61.4371 143.21 61.4062 143.187 61.3723 143.171C61.3384 143.155 61.302 143.146 61.2653 143.146H54.5525C54.5158 143.146 54.4794 143.155 54.4455 143.171C54.4115 143.187 54.3807 143.21 54.3547 143.24C54.3288 143.269 54.3082 143.304 54.2941 143.343C54.28 143.382 54.2728 143.423 54.2728 143.465V145.069H50.0774V143.465C50.0774 143.423 50.0701 143.382 50.0561 143.343C50.042 143.304 50.0214 143.269 49.9954 143.24C49.9695 143.21 49.9386 143.187 49.9047 143.171C49.8708 143.155 49.8344 143.146 49.7977 143.146H43.0849C43.0481 143.146 43.0118 143.155 42.9778 143.171C42.9439 143.187 42.9131 143.21 42.8871 143.24C42.8611 143.269 42.8405 143.304 42.8265 143.343C42.8124 143.382 42.8052 143.423 42.8052 143.465V145.069H38.6097V143.465C38.6097 143.423 38.6025 143.382 38.5884 143.343C38.5744 143.304 38.5538 143.269 38.5278 143.24C38.5018 143.21 38.471 143.187 38.437 143.171C38.4031 143.155 38.3667 143.146 38.33 143.146H31.6172C31.5805 143.146 31.5441 143.155 31.5102 143.171C31.4763 143.187 31.4454 143.21 31.4195 143.24C31.3935 143.269 31.3729 143.304 31.3588 143.343C31.3448 143.382 31.3375 143.423 31.3375 143.465V145.069H27.1421V143.465C27.1421 143.423 27.1348 143.382 27.1208 143.343C27.1067 143.304 27.0861 143.269 27.0601 143.24C27.0342 143.21 27.0033 143.187 26.9694 143.171C26.9355 143.155 26.8991 143.146 26.8624 143.146H20.1496C20.1129 143.146 20.0765 143.155 20.0426 143.171C20.0086 143.187 19.9778 143.21 19.9518 143.24C19.9259 143.269 19.9053 143.304 19.8912 143.343C19.8771 143.382 19.8699 143.423 19.8699 143.465V145.069H7.00378C5.22344 145.069 3.51603 145.874 2.25714 147.306C0.998254 148.738 0.291017 150.681 0.291016 152.706V156.159C0.291021 158.184 0.998259 160.127 2.25715 161.559C3.51603 162.991 5.22345 163.796 7.00378 163.796H230.203C231.983 163.796 233.691 162.991 234.95 161.559C236.209 160.127 236.916 158.184 236.916 156.159V152.706C236.916 150.681 236.209 148.738 234.95 147.306C233.691 145.874 231.983 145.069 230.203 145.069Z" fill="#3F3D56"/>
<path d="M52.4673 129.541C47.6608 129.541 42.9623 127.919 38.9658 124.881C34.9694 121.844 31.8545 117.526 30.0152 112.474C28.1758 107.422 27.6946 101.864 28.6323 96.5008C29.5699 91.138 31.8845 86.2119 35.2832 82.3455C38.6819 78.4791 43.0121 75.846 47.7262 74.7793C52.4403 73.7125 57.3267 74.26 61.7673 76.3525C66.2079 78.445 70.0033 81.9885 72.6737 86.5349C75.344 91.0813 76.7693 96.4264 76.7693 101.894C76.762 109.224 74.1993 116.251 69.6434 121.434C65.0874 126.617 58.9104 129.532 52.4673 129.541ZM52.4673 74.9756C47.7873 74.9756 43.2124 76.5544 39.3211 79.5122C35.4299 82.4701 32.397 86.6742 30.606 91.593C28.8151 96.5118 28.3465 101.924 29.2595 107.146C30.1725 112.368 32.4261 117.164 35.7354 120.929C39.0447 124.693 43.2609 127.257 47.851 128.296C52.4411 129.335 57.1988 128.801 61.5225 126.764C65.8463 124.727 69.5419 121.276 72.1419 116.85C74.742 112.423 76.1298 107.218 76.1298 101.894C76.1227 94.7575 73.6274 87.9153 69.1914 82.8688C64.7553 77.8223 58.7408 74.9837 52.4673 74.9756Z" fill="#3F3D56"/>
<path d="M269.267 12.4077H187.727V13.1353H269.267V12.4077Z" fill="#3F3D56"/>
<path d="M364.556 204.477H130.17V205.204H364.556V204.477Z" fill="#3F3D56"/>
<path d="M143.44 237.943H61.9004V238.671H143.44V237.943Z" fill="#3F3D56"/>
<path d="M159.853 200.641H150.899V210.827H159.853V200.641Z" fill="#72B874"/>
<path d="M165.289 205.007H154.417V192.639H165.289V205.007ZM154.89 204.469H164.816V193.176H154.89V204.469Z" fill="#3F3D56"/>
<path d="M263.776 8.57251H254.823V18.758H263.776V8.57251Z" fill="#72B874"/>
<path d="M269.212 12.9377H258.34V0.56958H269.212V12.9377ZM258.813 12.3999H268.739V1.10732H258.813V12.3999Z" fill="#3F3D56"/>
<path d="M353.949 200.641H344.996V210.827H353.949V200.641Z" fill="#72B874"/>
<path d="M359.385 205.007H348.513V192.639H359.385V205.007ZM348.986 204.469H358.912V193.176H348.986V204.469Z" fill="#3F3D56"/>
<path d="M338.336 84.9483H337.575V61.2447C337.575 59.443 337.263 57.6591 336.657 55.9946C336.051 54.3301 335.163 52.8178 334.043 51.5438C332.923 50.2699 331.594 49.2594 330.131 48.5699C328.667 47.8805 327.099 47.5256 325.516 47.5256H281.371C279.788 47.5256 278.219 47.8805 276.756 48.5699C275.293 49.2594 273.964 50.2699 272.844 51.5438C271.724 52.8178 270.836 54.3301 270.23 55.9946C269.624 57.6591 269.312 59.443 269.312 61.2447V191.285C269.312 193.086 269.624 194.87 270.23 196.535C270.836 198.199 271.724 199.712 272.844 200.985C273.964 202.259 275.293 203.27 276.756 203.959C278.219 204.649 279.788 205.004 281.371 205.004H325.516C327.099 205.004 328.667 204.649 330.131 203.959C331.594 203.27 332.923 202.259 334.043 200.985C335.163 199.712 336.051 198.199 336.657 196.535C337.263 194.87 337.575 193.086 337.575 191.285V101.821H338.336V84.9483Z" fill="#3F3D56"/>
<path d="M335.007 62.051V191.901C335.007 194.619 334.059 197.225 332.37 199.147C330.681 201.068 328.391 202.148 326.002 202.149H281.645C279.256 202.148 276.966 201.068 275.277 199.147C273.588 197.225 272.64 194.619 272.64 191.901V62.051C272.64 59.3343 273.589 56.729 275.278 54.808C276.966 52.887 279.257 51.8077 281.645 51.8074H287.026C286.761 52.5464 286.66 53.3482 286.732 54.1421C286.804 54.936 287.046 55.6977 287.437 56.36C287.829 57.0224 288.357 57.565 288.977 57.9402C289.596 58.3154 290.287 58.5116 290.988 58.5116H316.278C316.98 58.5117 317.671 58.3154 318.29 57.9402C318.909 57.565 319.437 57.0224 319.829 56.36C320.22 55.6977 320.463 54.936 320.534 54.1421C320.606 53.3482 320.505 52.5464 320.24 51.8074H326.002C328.39 51.8077 330.68 52.887 332.369 54.808C334.058 56.729 335.006 59.3343 335.007 62.051Z" fill="#72B874"/>
<path d="M310.431 137.425H297.217V141.88H310.431V137.425Z" fill="#3F3D56"/>
<path d="M326.405 102.742H281.242V104.652H326.405V102.742Z" fill="#3F3D56"/>
<path d="M326.405 108.788H281.242V110.697H326.405V108.788Z" fill="#3F3D56"/>
<path d="M326.405 114.834H281.242V116.743H326.405V114.834Z" fill="#3F3D56"/>
<path d="M326.405 120.879H281.242V122.789H326.405V120.879Z" fill="#3F3D56"/>
<path d="M326.405 126.925H281.242V128.834H326.405V126.925Z" fill="#3F3D56"/>
<path d="M305.401 77.3896H297.57V86.2989H305.401V77.3896Z" fill="#F2F2F2"/>
<path d="M300.568 79.6174V90.4359H310.078V79.6174H300.568ZM309.665 89.9666H300.98V80.0867H309.665V89.9666Z" fill="#3F3D56"/>
<path opacity="0.1" d="M335.007 178.035V191.901C335.007 194.619 334.059 197.225 332.37 199.147C330.681 201.068 328.391 202.148 326.002 202.149H281.645C279.256 202.148 276.966 201.068 275.277 199.147C273.588 197.225 272.64 194.619 272.64 191.901V121.982L310.011 155.568L310.65 156.143L317.602 162.389L318.251 162.975L335.007 178.035Z" fill="black"/>
<path d="M299.986 197.94C307.733 197.94 314.014 190.796 314.014 181.983C314.014 173.169 307.733 166.025 299.986 166.025C292.239 166.025 285.959 173.169 285.959 181.983C285.959 190.796 292.239 197.94 299.986 197.94Z" fill="#F2F2F2"/>
<path d="M102.67 238.671C97.1679 238.671 91.7893 236.815 87.2144 233.337C82.6395 229.86 79.0738 224.917 76.9682 219.134C74.8626 213.351 74.3117 206.988 75.3851 200.849C76.4586 194.71 79.1081 189.071 82.9987 184.645C86.8893 180.219 91.8463 177.205 97.2427 175.984C102.639 174.762 108.233 175.389 113.316 177.785C118.399 180.18 122.744 184.236 125.801 189.441C128.858 194.645 130.489 200.764 130.489 207.023C130.481 215.414 127.547 223.458 122.332 229.391C117.117 235.324 110.046 238.661 102.67 238.671ZM102.67 176.103C97.2943 176.103 92.0394 177.916 87.5697 181.314C83.1 184.712 79.6163 189.541 77.5591 195.191C75.5019 200.841 74.9636 207.058 76.0124 213.055C77.0611 219.053 79.6498 224.563 83.4509 228.887C87.2521 233.211 92.0951 236.156 97.3675 237.349C102.64 238.542 108.105 237.93 113.071 235.59C118.038 233.25 122.283 229.286 125.269 224.202C128.256 219.117 129.85 213.139 129.85 207.023C129.842 198.826 126.976 190.966 121.88 185.17C116.785 179.373 109.876 176.112 102.67 176.103Z" fill="#3F3D56"/>
<path d="M304.121 194.291C300.643 194.291 297.243 193.118 294.35 190.919C291.458 188.721 289.204 185.596 287.873 181.94C286.542 178.285 286.194 174.262 286.872 170.381C287.551 166.5 289.226 162.935 291.685 160.137C294.145 157.339 297.279 155.433 300.69 154.661C304.102 153.889 307.638 154.286 310.851 155.8C314.065 157.314 316.812 159.878 318.744 163.169C320.677 166.459 321.708 170.327 321.708 174.284C321.703 179.588 319.848 184.674 316.551 188.425C313.254 192.175 308.784 194.285 304.121 194.291ZM304.121 155.004C300.769 155.004 297.493 156.135 294.706 158.254C291.919 160.372 289.746 163.383 288.464 166.906C287.181 170.429 286.845 174.305 287.499 178.045C288.153 181.785 289.767 185.221 292.138 187.917C294.508 190.613 297.527 192.449 300.815 193.193C304.102 193.937 307.51 193.555 310.607 192.096C313.703 190.637 316.35 188.166 318.212 184.995C320.075 181.825 321.069 178.097 321.069 174.284C321.064 169.173 319.276 164.272 316.099 160.658C312.922 157.043 308.614 155.01 304.121 155.004Z" fill="#3F3D56"/>
</g>
<defs>
<clipPath id="clip0">
<rect x="0.291016" y="0.56958" width="364.265" height="238.101" fill="white"/>
</clipPath>
</defs>
</svg>
