<svg width="340" height="231" viewBox="0 0 340 231" fill="none" xmlns="http://www.w3.org/2000/svg">
<g clip-path="url(#clip0)">
<path opacity="0.1" d="M204.392 166.495C210.961 166.049 219.11 160.743 225.446 158.396C232.946 155.625 240.475 152.959 248.034 150.398C274.348 141.48 300.945 133.88 327.824 127.6C330.332 127.012 332.844 126.439 335.361 125.88C331.441 115.791 325.368 107.103 317.749 100.685C317.944 98.476 318.043 96.2569 318.046 94.0362C318.046 58.9394 294.498 30.4875 265.441 30.4875C256.495 30.4762 247.699 33.2265 239.911 38.4705C219.345 22.3558 192.501 12.6028 163.132 12.6028C121.399 12.6028 84.7623 32.2965 64.0027 61.9521L161.568 81.5856L221.407 93.622C153.19 96.047 84.7623 98.4578 16.7415 92.7653C7.76243 103.114 2.07929 116.856 0.663366 131.643C-0.752562 146.429 2.18661 161.343 8.97858 173.834C8.97858 175.105 9.02316 176.365 9.1034 177.615C10.8361 178.206 12.5093 178.78 14.0102 179.155C38.1054 185.218 62.3552 190.292 86.7595 194.377C68.7758 207.586 46.8749 209.455 26.1301 215.048C36.1756 224.925 49.8172 230.979 64.8497 230.979H288.679C312.916 230.979 332.561 210.881 332.561 186.086C336.198 178.943 338.622 171.017 339.694 162.761C294.846 167.919 249.439 163.44 204.392 166.495Z" fill="#72B874"/>
<path opacity="0.1" d="M340 152.2C340.024 141.982 337.984 131.906 334.053 122.823C330.122 113.74 324.414 105.916 317.412 100.012C317.606 97.8045 317.705 95.5867 317.71 93.3671C317.71 58.2704 294.15 29.829 265.105 29.829C256.158 29.8176 247.361 32.5667 239.572 37.8085C219.005 21.6867 192.159 11.9302 162.79 11.9302C115.017 11.9302 73.8962 37.7554 55.6598 74.7886C54.6464 74.7178 53.627 74.6788 52.5986 74.6788C23.55 74.6788 -0.00624494 103.131 -0.00624494 138.228C-0.0266056 150.624 2.98036 162.761 8.6483 173.158C8.6483 204.736 33.6698 230.334 64.5224 230.334H288.358C312.592 230.334 332.237 210.234 332.237 185.439C337.334 175.416 340.019 163.918 340 152.2Z" fill="#72B874"/>
<path d="M277.671 113.266C277.246 112.878 276.748 112.618 276.22 112.509C275.665 112.356 275.097 112.261 274.532 112.155L267.215 110.898C266.477 110.734 265.723 110.687 264.974 110.756C264.599 110.793 264.233 110.918 263.898 111.125C263.563 111.331 263.266 111.615 263.025 111.96C262.807 112.28 262.687 112.68 262.686 113.093C262.727 113.508 262.84 113.908 263.019 114.268C263.09 114.436 263.15 114.61 263.2 114.788C263.27 115.189 263.357 115.585 263.462 115.974C263.494 116.059 263.536 116.137 263.586 116.208C263.588 116.228 263.588 116.248 263.586 116.268C263.506 116.757 263.765 117.266 263.649 117.737C263.548 118.141 263.218 118.385 263.01 118.721C262.871 118.96 262.794 119.242 262.789 119.532C262.784 119.822 262.85 120.108 262.98 120.353C263.203 120.764 263.607 121.044 263.723 121.515C263.875 122.134 263.465 122.732 263.099 123.21C262.426 124.09 261.805 125.023 261.238 126.004C261.079 126.245 260.977 126.532 260.941 126.835C260.909 127.451 261.405 127.993 261.319 128.605C261.25 129.087 260.855 129.381 260.513 129.668C259.25 130.659 258.237 132.252 258.136 134.054C257.811 131.187 256.814 128.487 255.259 126.265C254.834 125.657 254.367 125.044 254.192 124.272C254.126 123.964 254.115 123.635 254.025 123.338C253.728 122.4 252.783 121.996 252.37 121.132C252.073 120.523 252.073 119.741 251.704 119.206C251.336 118.672 250.756 118.552 250.438 118.035C250.279 117.685 250.144 117.32 250.034 116.944C249.901 116.638 249.713 116.37 249.484 116.158C249.44 116.117 249.395 116.078 249.347 116.042C249.397 115.989 249.436 115.925 249.463 115.853C249.491 115.781 249.505 115.703 249.505 115.624C249.505 115.21 249.16 114.937 248.86 114.732C248.474 114.47 248.096 114.187 247.728 113.893C248.13 113.67 248.478 113.33 248.741 112.905C249.071 112.271 249.207 111.521 249.127 110.781C249.107 110.184 248.92 109.612 248.595 109.156C248.408 108.919 248.173 108.749 247.977 108.526C247.469 107.935 247.297 107.06 247.086 106.253C246.806 105.191 246.369 104.076 245.555 103.513C245.163 103.241 244.705 103.113 244.322 102.826C243.938 102.54 243.617 101.998 243.751 101.478C243.84 101.124 244.117 100.879 244.304 100.578C244.527 100.189 244.613 99.7109 244.542 99.247C244.472 98.7831 244.25 98.371 243.926 98.1003C243.706 97.9339 243.436 97.7887 243.391 97.4843C243.219 97.431 243.063 97.3211 242.941 97.1671C242.82 97.013 242.736 96.8211 242.702 96.6134C242.635 96.1971 242.635 95.7695 242.702 95.3531C242.779 94.6947 242.856 94.0386 242.931 93.3848C243.062 93.4497 243.202 93.4831 243.344 93.4831C243.486 93.4831 243.626 93.4497 243.757 93.3848C244.014 93.882 244.313 94.3469 244.649 94.7726C245.554 96.0456 246.258 97.5027 246.729 99.0738C246.898 99.6402 247.071 100.274 247.511 100.575C247.662 100.677 247.835 100.731 247.983 100.84C248.166 100.992 248.324 101.185 248.447 101.407C248.804 101.97 249.16 102.529 249.514 103.092L249.532 103.177C249.541 103.227 249.557 103.274 249.579 103.318C249.645 103.407 249.736 103.462 249.835 103.474C250.929 103.775 252.156 104.051 253.104 103.34C253.96 102.702 254.334 101.442 255.06 100.6C255.574 100.001 256.302 99.5376 256.448 98.695C256.274 98.6312 256.103 98.5568 255.936 98.472C256.085 98.295 256.234 98.0896 256.436 97.856C256.729 97.5136 256.994 97.1377 257.226 96.7338C257.477 96.2355 257.677 95.703 257.821 95.1478C258.393 93.2031 258.968 91.2572 259.544 89.3101C259.818 88.3897 260.091 87.4622 260.436 86.5665C260.793 85.5966 261.215 84.6655 261.604 83.7132C262.609 81.2366 263.384 78.637 263.916 75.9604C264.011 75.5952 264.042 75.211 264.008 74.8311C263.925 74.2186 263.536 73.7371 263.164 73.3017C262.791 72.82 262.365 72.3997 261.898 72.0521C261.664 71.8785 261.403 71.7621 261.13 71.7099C260.858 71.6576 260.579 71.6704 260.311 71.7476C259.55 72.0131 259.072 72.9406 258.897 73.8717C258.721 74.8027 258.787 75.7621 258.712 76.7038C258.605 78.0667 258.213 79.3836 258.118 80.7501C258.067 81.5396 258.118 82.3396 258.038 83.1291C257.891 84.1623 257.589 85.1553 257.146 86.0603C256.182 88.2186 254.877 90.1347 253.303 91.7033C253.122 91.8838 252.935 92.0573 252.756 92.252C252.756 92.0998 252.777 91.944 252.795 91.7918C252.666 91.8319 252.539 91.8852 252.418 91.9511C252.432 91.7723 252.417 91.5918 252.373 91.4201C252.135 90.574 251.077 90.358 250.887 89.4978C250.855 89.285 250.838 89.0695 250.836 88.8535C250.774 88.0994 250.343 87.4622 250.194 86.7294C250.058 86.0532 250.162 85.3133 249.897 84.6867C249.672 84.2949 249.406 83.9382 249.107 83.6247C248.75 83.1388 248.492 82.5608 248.355 81.9361C248.316 81.7626 248.28 81.5821 248.239 81.4086C248.284 81.0158 248.247 80.6158 248.132 80.2439C247.861 79.4438 247.163 78.9305 246.91 78.1198C246.714 77.4897 246.8 76.7038 246.429 76.2152C246.231 75.9818 245.99 75.8082 245.725 75.709C244.364 75.078 242.937 74.6765 241.483 74.516C240.669 74.4275 239.772 74.3779 239.189 73.6947C238.508 72.9017 238.476 71.475 237.679 70.8626C236.978 70.3209 235.985 70.721 235.441 71.4821C235.36 71.5941 235.284 71.7123 235.215 71.8361C235.116 71.3616 235.095 70.8687 235.153 70.3847C235.153 70.2643 235.174 70.1404 235.183 70.0306C236.525 69.5083 237.667 68.4341 238.404 67.0003C238.404 67.0003 238.404 67.0003 238.404 67.0215L238.44 67.1313C238.526 67.3897 238.663 67.6375 238.865 67.6658C239 67.6639 239.129 67.6078 239.234 67.5065C239.413 67.3581 239.578 67.1872 239.727 66.9968C239.802 66.8976 239.874 66.795 239.941 66.6888C240.078 66.4677 240.195 66.2304 240.292 65.9807C240.439 65.6051 240.539 65.2054 240.589 64.7948C240.642 64.3842 240.648 63.9629 240.708 63.5522C240.763 63.2344 240.836 62.921 240.925 62.6141C240.954 62.5114 240.984 62.4088 241.011 62.3061C241.038 62.2034 241.076 62.0654 241.106 61.9521C241.292 61.224 241.392 60.4686 241.403 59.7077C241.403 59.5802 241.403 59.4528 241.403 59.3253C241.392 58.8287 241.298 58.3396 241.127 57.8868C240.956 57.4339 240.71 57.0263 240.405 56.6879C239.893 56.1888 239.216 55.9799 238.841 55.3037C238.598 54.8506 238.544 54.2665 238.401 53.7355C238.247 53.1 237.947 52.5286 237.534 52.0863C237.121 51.6439 236.612 51.3482 236.065 51.2326C235.407 51.1466 234.746 51.3631 234.217 51.838L234.175 51.8769C233.88 52.145 233.631 52.4764 233.438 52.854C233.045 52.7251 232.686 52.4818 232.392 52.146C232.095 51.8167 231.866 51.4025 231.566 51.0839C231.285 50.7779 230.941 50.5672 230.569 50.4738C230.196 50.3804 229.81 50.4077 229.45 50.5529C229.079 50.73 228.748 51.0094 228.485 51.3682C228.222 51.7269 228.034 52.1548 227.937 52.6168C227.773 53.3461 227.803 54.1851 227.461 54.794C227.197 55.2683 226.763 55.502 226.46 55.9339C226.271 56.2074 226.143 56.5321 226.085 56.8791C226.049 57.0732 226.032 57.2716 226.035 57.4703C226.035 57.5588 226.035 57.6473 226.053 57.7323C226.053 57.7323 226.053 57.7606 226.053 57.7747C226.063 57.8718 226.08 57.9676 226.103 58.0615C226.188 58.4204 226.339 58.7519 226.546 59.0315C226.742 59.2992 226.987 59.5099 227.262 59.6475C227.375 59.6996 227.49 59.7434 227.607 59.7785L227.961 59.874L228.086 59.9094C227.659 60.864 227.422 61.9225 227.393 63.0034C227.364 64.0844 227.544 65.1587 227.919 66.1436C227.919 66.2427 227.898 66.3418 227.889 66.441C227.841 67.8349 227.893 69.2313 228.044 70.6148C228.086 71.1635 228.109 71.7689 227.827 72.2043C227.698 72.3756 227.554 72.5288 227.396 72.661C227.556 72.4131 227.72 72.1689 227.886 71.9246C227.467 71.4219 226.805 71.3582 226.21 71.4078C225.06 71.5101 223.943 71.9164 222.941 72.5972C222.275 73.0539 221.592 73.6593 220.831 73.5531C220.382 73.4929 219.939 73.1991 219.502 73.3407C219.257 73.4603 219.027 73.6226 218.822 73.8221C218.659 73.961 218.463 74.0331 218.263 74.0274C217.796 73.3442 217.074 72.8804 216.515 72.3246C215.88 71.6504 215.297 70.9073 214.777 70.105C213.814 68.7208 212.854 67.3331 211.909 65.9347C211.112 64.7594 210.295 63.4885 210.155 61.9839C210.141 61.8347 210.134 61.6846 210.134 61.5344C210.154 60.8195 210.229 60.1083 210.36 59.4103C210.396 59.2418 210.396 59.0655 210.36 58.897C210.271 58.5429 209.929 58.412 209.635 58.3341C209.674 58.0615 209.701 57.7818 209.715 57.5163C209.882 54.4718 209.701 51.3778 210.241 48.397C210.447 47.25 210.782 46.0888 211.475 45.2569C212.56 43.9506 214.376 43.6355 215.208 42.0885C215.903 40.7999 215.627 38.9767 214.753 37.8403C213.879 36.704 212.533 36.2402 211.252 36.2968C210.893 36.2821 210.538 36.3955 210.233 36.6225C209.947 36.9241 209.734 37.31 209.614 37.7412L208.339 41.4335C207.97 42.3949 207.658 43.3862 207.406 44.4002C207.049 45.9507 206.969 47.5863 206.687 49.151C206.687 50.3547 206.036 51.8557 205.679 52.9637C205.281 54.2098 204.85 55.4418 204.491 56.7127C204.401 57.0313 204.089 57.9765 203.896 58.8368C203.823 58.8874 203.755 58.948 203.694 59.0173C203.539 59.2542 203.398 59.5038 203.272 59.7643C203.002 60.1891 202.562 60.4157 202.265 60.8263C201.967 61.237 201.905 61.991 202.318 62.1964C202.402 62.2299 202.489 62.2525 202.577 62.2636C202.631 62.2691 202.684 62.2797 202.737 62.2955C203.183 62.4442 203.358 63.1132 203.293 63.6655C203.227 64.2178 202.996 64.7276 202.957 65.2798C202.877 66.2569 203.358 67.1667 203.822 67.988C204.302 68.8783 204.832 69.7287 205.409 70.5333C205.828 71.0927 206.301 71.5954 206.723 72.1335C208.33 74.1018 209.608 76.4029 211.053 78.5411C211.572 79.3481 212.163 80.0863 212.815 80.7431C213.241 81.1397 213.687 81.505 214.15 81.8369L216.634 83.7132C216.916 83.9592 217.235 84.1383 217.573 84.2407C217.684 84.2584 217.796 84.2584 217.906 84.2407C217.921 84.3292 217.933 84.4142 217.951 84.5027C218.144 85.4302 218.569 86.2727 218.617 87.2179C218.664 88.1631 218.593 89.1296 218.649 90.0854C218.703 90.9669 218.866 91.8555 218.908 92.7228C218.991 94.3938 218.646 96.0435 218.313 97.679C217.811 100.072 217.508 102.515 216.53 104.685C216.257 105.283 215.936 105.892 215.936 106.575C215.936 106.657 215.936 106.742 215.954 106.823L215.508 107.124C215.377 107.213 215.246 107.301 215.127 107.393C214.563 107.832 213.959 108.317 213.728 109.075C213.54 109.687 213.627 110.388 213.401 110.983C213.39 111.009 213.378 111.035 213.365 111.061C213.127 111.613 212.655 112.024 212.548 112.629C212.468 113.093 212.622 113.585 212.548 114.045C212.548 114.045 212.548 114.045 212.548 114.063C212.48 114.294 212.426 114.53 212.387 114.771C212.384 114.849 212.39 114.928 212.405 115.004C212.462 115.273 212.586 115.514 212.762 115.695C212.869 115.817 212.985 115.927 213.109 116.024C213.236 116.123 213.367 116.215 213.502 116.3L213.579 116.35C213.692 116.42 213.805 116.488 213.921 116.551L213.998 116.59C214.132 116.661 214.269 116.725 214.405 116.781L214.5 116.817C214.607 116.859 214.717 116.898 214.827 116.93L214.902 116.958L214.97 116.976L215.267 117.051L215.377 117.075C215.508 117.101 215.642 117.123 215.778 117.139H215.897C215.998 117.139 216.096 117.157 216.194 117.16H216.334C216.438 117.16 216.539 117.16 216.631 117.16H216.738C216.878 117.16 217.018 117.135 217.157 117.114H217.202C217.327 117.093 217.452 117.068 217.576 117.036L217.672 117.012C217.787 116.98 217.903 116.948 218.019 116.905L218.082 116.884C218.221 116.835 218.361 116.781 218.498 116.718C218.971 116.486 219.43 116.215 219.871 115.907C220.168 115.712 220.465 115.514 220.762 115.334C220.983 115.201 221.209 115.083 221.44 114.98C222.002 114.694 222.614 114.572 223.223 114.626C223.524 114.674 223.822 114.747 224.115 114.841C224.115 114.88 224.115 114.919 224.115 114.958C224.357 116.658 224.595 118.357 224.831 120.056C225.22 119.722 225.632 119.428 226.062 119.175C225.981 119.431 225.928 119.699 225.904 119.971C225.886 120.182 225.886 120.394 225.904 120.605C225.931 120.941 225.99 121.313 225.821 121.578C225.717 121.741 225.524 121.833 225.467 122.017C225.426 122.206 225.416 122.402 225.437 122.594C225.425 122.814 225.347 123.022 225.217 123.179C225.088 123.336 224.915 123.433 224.73 123.451C224.815 123.736 224.817 124.047 224.736 124.333C224.654 124.62 224.494 124.865 224.281 125.03C224.157 125.101 224.041 125.192 223.937 125.299C223.835 125.455 223.767 125.639 223.737 125.834C223.345 127.587 222.537 129.168 221.41 130.39C220.988 130.785 220.602 131.234 220.26 131.728C220.049 132.11 219.874 132.52 219.74 132.949C218.948 135.257 218.143 137.567 217.327 139.877C216.875 141.169 216.435 142.483 216.293 143.874C215.936 147.69 213.083 150.926 213.618 154.714C213.726 155.66 214.046 156.554 214.545 157.302C215.139 158.155 216.031 158.643 216.923 159.04C219.214 160.102 221.63 160.683 224.038 161.267L227.818 162.191C228.56 162.394 229.313 162.536 230.071 162.615C230.983 162.69 231.919 162.587 232.808 162.863C233.358 163.033 233.884 163.348 234.452 163.384C234.939 163.416 235.539 163.292 235.828 163.766C236.116 164.24 235.893 164.867 236.166 165.288C236.606 165.957 237.679 165.288 238.158 165.918C238.288 166.16 238.389 166.424 238.455 166.701C238.528 166.872 238.629 167.024 238.752 167.147C238.781 167.347 238.793 167.549 238.788 167.752C238.726 168.574 238.582 169.385 238.36 170.167C238.003 171.604 237.648 173.042 237.293 174.482C237.157 174.99 237.058 175.511 236.996 176.04C236.973 176.296 236.973 176.555 236.996 176.811C237.058 177.594 237.436 178.401 238.063 178.656C238.549 178.809 239.066 178.733 239.507 178.443C239.932 178.179 240.331 177.858 240.696 177.487C241.354 176.894 241.932 176.185 242.411 175.385C243.897 172.737 243.415 169.154 244.458 166.226C245.151 164.272 246.5 162.686 246.949 160.626C247.054 160.234 247.066 159.815 246.985 159.415C246.797 158.707 246.164 158.304 245.573 158.049H245.546C245.06 157.843 244.564 157.674 244.06 157.542C243.935 157.511 243.808 157.486 243.68 157.461C243.397 157.187 243.172 156.838 243.023 156.441C243 156.231 242.953 156.025 242.883 155.829C242.836 155.745 242.772 155.675 242.698 155.626C242.624 155.576 242.54 155.549 242.455 155.546C242.158 155.51 241.76 155.638 241.436 155.61C240.773 155.553 240.333 154.778 239.739 154.42C239.144 154.062 238.5 154.151 237.866 154.204C237.64 154.241 237.41 154.224 237.189 154.155C236.925 154.01 236.684 153.812 236.476 153.57C236.11 153.231 235.683 152.998 235.228 152.89C234.774 152.781 234.305 152.799 233.857 152.944C233.573 153.081 233.272 153.162 232.966 153.185C232.386 153.146 231.976 152.53 231.548 152.062C230.377 150.784 228.71 150.448 227.289 149.609C227.072 149.513 226.89 149.327 226.778 149.085C226.614 148.604 226.983 148.122 227.316 147.793L229.759 145.375C232.434 142.727 235.777 140.734 237.019 136.85C237.149 136.33 237.35 135.838 237.614 135.395C237.71 135.26 237.821 135.141 237.944 135.041C238.484 134.624 239.139 134.472 239.772 134.617C240.542 134.822 241.273 135.202 241.923 135.735C242.987 136.502 244.023 137.328 245.029 138.213C246.026 139.062 246.974 139.989 247.867 140.989C249.428 142.759 250.726 144.858 252.18 146.766C253.633 148.674 255.294 150.455 257.312 151.368C259.33 152.282 261.77 152.243 263.503 150.71C265.503 148.94 266.145 145.775 266.651 142.872C267.765 141.591 268.101 139.64 268.645 137.916C268.987 136.822 269.423 135.792 269.792 134.702C270.232 133.42 270.577 132.096 270.921 130.776C271.312 129.45 271.577 128.076 271.712 126.68C271.855 124.474 271.358 122.127 271.878 120.056C272.565 119.876 273.189 119.415 273.864 119.146C274.868 118.753 275.944 118.817 277.008 118.824H277.076C277.443 118.871 277.812 118.767 278.123 118.53C278.479 118.176 278.536 117.571 278.554 117.022C278.595 115.666 278.524 114.144 277.671 113.266ZM234.609 52.8788C234.363 52.9512 234.109 52.9727 233.857 52.9425L234.609 52.8788Z" fill="url(#paint0_linear)"/>
<path d="M235.78 75.2736C235.42 75.6377 234.998 75.9046 234.544 76.0559L232.436 76.9551C231.292 77.4437 230.097 77.9358 228.891 77.7588C228.216 77.6596 225.324 77.1534 224.888 76.5268C224.222 75.5568 226.555 74.1301 227.351 73.3124C227.532 73.1578 227.699 72.9823 227.851 72.7884C228.148 72.3565 228.109 71.7512 228.068 71.206C227.916 69.8249 227.865 68.4309 227.913 67.0393C227.936 66.7075 227.976 66.3777 228.032 66.0516C228.329 64.4231 229.601 65.0179 230.606 65.4497C231.815 65.9176 232.984 66.521 234.098 67.2517C234.437 67.46 234.732 67.7578 234.96 68.1225C235.4 68.9155 235.224 69.9563 235.153 70.9546C235.09 71.7299 235.093 72.4733 235.501 73.0362C235.706 73.2514 235.894 73.4884 236.062 73.7442C236.157 74.0019 236.181 74.2889 236.131 74.5638C236.08 74.8387 235.957 75.0872 235.78 75.2736Z" fill="#BE6F72"/>
<path d="M206.672 49.7599C206.969 48.1917 207.034 46.5738 207.391 45.0197C207.643 44.0092 207.954 43.0214 208.324 42.0637L209.635 38.4209C209.755 37.9908 209.968 37.6061 210.253 37.3058C210.559 37.0804 210.913 36.9671 211.272 36.9801C212.553 36.9235 213.9 37.3978 214.773 38.5201C215.647 39.6423 215.924 41.4584 215.228 42.7434C214.396 44.2904 212.58 44.602 211.495 45.9047C210.803 46.7367 210.467 47.8943 210.262 49.0378C209.721 52.0115 209.902 55.0949 209.736 58.1323C209.682 59.0775 209.528 60.1573 208.844 60.6458C208.431 60.8869 207.972 60.9932 207.513 60.9538L205.563 60.9927C205.236 60.9927 204.05 61.237 203.833 60.9432C203.453 60.4299 204.321 57.8739 204.478 57.3039C204.829 56.0401 205.26 54.8081 205.667 53.5656C206.021 52.4575 206.672 50.96 206.672 49.7599Z" fill="#BE6F72"/>
<path d="M246.928 160.977C246.479 163.023 245.13 164.616 244.437 166.566C243.394 169.487 243.864 173.059 242.39 175.7C241.912 176.502 241.333 177.212 240.675 177.806C240.31 178.176 239.911 178.495 239.486 178.759C239.045 179.048 238.528 179.124 238.042 178.971C237.415 178.716 237.037 177.909 236.975 177.13C236.952 176.875 236.952 176.617 236.975 176.362C237.037 175.835 237.137 175.315 237.272 174.808C237.629 173.375 237.984 171.94 238.339 170.503C238.561 169.724 238.705 168.915 238.767 168.096C238.806 167.204 238.33 166.042 238.532 165.211C238.624 164.835 238.969 164.503 239.126 164.187C239.35 163.734 239.522 163.247 239.638 162.74C239.881 161.752 240.048 160.697 240.559 159.865C240.893 159.372 241.283 158.937 241.718 158.573C242.039 158.237 242.416 157.985 242.824 157.833C243.219 157.75 243.625 157.773 244.012 157.9C244.517 158.028 245.013 158.196 245.499 158.403H245.525C246.12 158.658 246.75 159.051 246.937 159.766C247.028 160.163 247.025 160.582 246.928 160.977Z" fill="#3F3D56"/>
<path d="M278.55 117.454C278.533 118.003 278.476 118.615 278.119 118.959C277.809 119.195 277.44 119.299 277.073 119.253H276.993C275.932 119.253 274.853 119.182 273.849 119.575C273.085 119.876 272.383 120.428 271.587 120.538C270.49 120.686 269.459 119.971 268.487 119.348C267.572 118.761 266.633 118.229 265.673 117.755C265.042 117.447 263.756 117.249 263.452 116.428C263.349 116.039 263.261 115.644 263.191 115.245C263.141 115.067 263.08 114.893 263.01 114.725C262.831 114.366 262.718 113.967 262.677 113.553C262.678 113.14 262.797 112.741 263.016 112.42C263.258 112.078 263.555 111.797 263.889 111.592C264.223 111.387 264.588 111.263 264.962 111.227C265.711 111.158 266.465 111.205 267.203 111.369L274.52 112.622C275.085 112.718 275.653 112.813 276.208 112.976C276.736 113.085 277.234 113.345 277.659 113.734C278.524 114.597 278.595 116.116 278.55 117.454Z" fill="#3F3D56"/>
<path d="M272.119 119.72C271.227 121.961 271.869 124.612 271.709 127.09C271.574 128.483 271.309 129.853 270.918 131.176C270.573 132.493 270.229 133.813 269.789 135.091C269.42 136.153 268.983 137.215 268.641 138.298C268.098 140.026 267.75 141.97 266.647 143.255C266.142 146.15 265.5 149.315 263.5 151.071C261.761 152.601 259.339 152.654 257.309 151.73C255.279 150.806 253.63 149.036 252.176 147.128C250.723 145.219 249.424 143.141 247.864 141.364C246.97 140.364 246.02 139.438 245.02 138.592C244.013 137.721 242.978 136.902 241.914 136.135C241.263 135.604 240.532 135.226 239.762 135.02C239.13 134.876 238.475 135.028 237.934 135.445C237.812 135.545 237.701 135.664 237.605 135.799C237.34 136.24 237.139 136.731 237.01 137.251C235.762 141.123 232.412 143.113 229.738 145.754L227.295 148.165C226.962 148.494 226.593 148.975 226.757 149.453C226.869 149.695 227.05 149.881 227.268 149.977C228.689 150.813 230.356 151.149 231.527 152.424C231.955 152.891 232.365 153.507 232.944 153.542C233.25 153.521 233.551 153.441 233.836 153.305C234.283 153.161 234.752 153.142 235.207 153.25C235.661 153.358 236.088 153.59 236.454 153.928C236.662 154.17 236.904 154.367 237.168 154.512C237.389 154.582 237.619 154.599 237.845 154.562C238.478 154.509 239.15 154.441 239.718 154.778C240.285 155.114 240.752 155.907 241.415 155.964C241.739 155.992 242.125 155.865 242.434 155.9C242.519 155.903 242.602 155.931 242.677 155.98C242.751 156.029 242.815 156.099 242.862 156.183C242.931 156.378 242.978 156.583 243.002 156.792C243.124 157.291 243.534 157.596 243.801 158.006C244.211 158.636 244.271 159.493 244.229 160.29C244.095 162.78 243.163 165.114 241.626 166.811C241.189 167.342 240.633 167.711 240.024 167.873C239.719 167.949 239.402 167.909 239.117 167.758C238.832 167.607 238.594 167.354 238.437 167.034C238.37 166.758 238.27 166.496 238.14 166.255C237.661 165.628 236.588 166.294 236.148 165.625C235.875 165.207 236.071 164.538 235.809 164.106C235.548 163.674 234.918 163.752 234.433 163.727C233.866 163.692 233.34 163.373 232.79 163.207C231.898 162.931 230.965 163.033 230.053 162.959C229.294 162.879 228.542 162.737 227.8 162.534L224.019 161.614C221.612 161.03 219.196 160.438 216.904 159.394C216.028 158.998 215.145 158.509 214.527 157.659C214.028 156.913 213.708 156.02 213.6 155.075C213.062 151.298 215.915 148.069 216.274 144.264C216.402 142.876 216.869 141.566 217.309 140.277C218.115 137.974 218.919 135.669 219.722 133.364C219.852 132.934 220.021 132.523 220.227 132.139C220.569 131.646 220.955 131.198 221.377 130.804C222.504 129.587 223.311 128.009 223.704 126.259C223.734 126.064 223.802 125.88 223.904 125.724C224.009 125.619 224.125 125.53 224.248 125.458C224.461 125.294 224.62 125.049 224.702 124.763C224.783 124.478 224.781 124.168 224.697 123.883C224.882 123.865 225.054 123.768 225.184 123.611C225.314 123.454 225.392 123.246 225.404 123.026C225.383 122.835 225.393 122.64 225.434 122.453C225.505 122.269 225.684 122.177 225.788 122.014C225.957 121.748 225.898 121.377 225.871 121.044C225.853 120.833 225.853 120.621 225.871 120.41C225.936 119.661 226.218 118.961 226.668 118.431C227.378 117.599 228.388 117.815 229.369 117.617C230.347 117.366 231.303 117.002 232.222 116.53C234.801 115.32 237.516 114.572 240.279 114.311C243.056 114.05 245.845 114.579 248.417 115.854C248.791 116.035 249.144 116.273 249.466 116.562C249.695 116.772 249.882 117.039 250.016 117.344C250.125 117.719 250.261 118.083 250.42 118.431C250.738 118.948 251.338 119.115 251.686 119.603C252.034 120.092 252.064 120.916 252.352 121.522C252.765 122.386 253.722 122.786 254.007 123.724C254.096 124.021 254.108 124.347 254.174 124.655C254.334 125.427 254.816 126.035 255.241 126.644C256.799 128.864 257.796 131.565 258.118 134.433C258.213 132.638 259.226 131.048 260.495 130.057C260.837 129.792 261.232 129.498 261.301 129.016C261.387 128.407 260.89 127.866 260.923 127.246C260.959 126.944 261.062 126.658 261.22 126.418C261.787 125.44 262.408 124.509 263.081 123.632C263.446 123.154 263.857 122.57 263.705 121.94C263.589 121.469 263.185 121.193 262.962 120.782C262.832 120.537 262.765 120.252 262.771 119.962C262.776 119.673 262.853 119.391 262.992 119.153C263.2 118.817 263.53 118.573 263.631 118.173C263.747 117.702 263.488 117.192 263.568 116.707C263.677 116.319 263.893 115.986 264.18 115.762C264.575 115.334 265.023 114.983 265.509 114.721C266.294 114.367 267.167 114.498 268 114.636C269.39 114.866 270.951 115.22 271.735 116.608C272.238 117.475 272.493 118.792 272.119 119.72Z" fill="#65617D"/>
<path opacity="0.1" d="M278.55 117.454C278.533 118.003 278.476 118.615 278.12 118.959C277.809 119.195 277.44 119.299 277.073 119.253H276.993C277.115 118.516 277.867 118.095 277.998 117.348C278.02 117.119 278.003 116.886 277.946 116.665C277.89 116.444 277.796 116.239 277.671 116.063C277.035 115.04 276.012 114.473 274.996 114.059C272.124 112.887 269.048 112.612 266.062 113.263C265.25 113.42 264.46 113.71 263.714 114.123C263.467 114.307 263.229 114.508 263.001 114.725C262.823 114.366 262.709 113.967 262.668 113.553C262.669 113.14 262.789 112.741 263.007 112.42C263.249 112.078 263.546 111.797 263.88 111.592C264.214 111.387 264.579 111.263 264.953 111.227C265.702 111.158 266.456 111.205 267.194 111.369L274.512 112.622C275.076 112.718 275.644 112.813 276.2 112.976C276.727 113.085 277.225 113.345 277.65 113.734C278.524 114.597 278.595 116.116 278.55 117.454Z" fill="black"/>
<path opacity="0.1" d="M246.928 160.976C246.479 163.023 245.13 164.616 244.437 166.566C243.394 169.487 243.864 173.059 242.39 175.7C241.912 176.502 241.333 177.212 240.675 177.806C240.31 178.176 239.911 178.495 239.486 178.758C239.045 179.048 238.528 179.124 238.042 178.971C237.415 178.716 237.037 177.909 236.975 177.13C236.952 176.875 236.952 176.617 236.975 176.362L236.993 176.418C237.251 177.162 237.673 177.941 238.339 178.072C238.589 178.093 238.84 178.053 239.076 177.954C239.312 177.854 239.529 177.698 239.712 177.495C240.693 176.556 241.263 175.158 241.807 173.809C242.233 172.837 242.57 171.812 242.812 170.754C242.931 170.152 242.987 169.536 243.109 168.935C243.674 166.01 245.597 163.624 246.022 160.661C246.056 160.457 246.064 160.249 246.045 160.042C245.989 159.772 245.903 159.513 245.79 159.27C245.686 158.996 245.611 158.708 245.564 158.413C246.158 158.668 246.788 159.061 246.976 159.776C247.052 160.174 247.036 160.589 246.928 160.976Z" fill="black"/>
<path opacity="0.1" d="M242.44 155.9C242.165 156.756 241.702 157.509 241.1 158.081C240.254 158.848 239.263 159.359 238.214 159.567C237.726 159.716 237.213 159.708 236.728 159.546C236.068 159.274 235.593 158.537 234.918 158.325C234.437 158.169 233.92 158.307 233.432 158.222C232.555 158.077 231.875 157.28 231.167 156.643C229.001 154.703 226.157 154.077 223.99 152.137C223.893 152.066 223.814 151.967 223.758 151.85C223.717 151.723 223.701 151.586 223.714 151.45C223.722 150.273 223.944 149.113 224.364 148.048C224.709 147.305 225.12 146.608 225.589 145.97C227.53 143.138 229.479 140.284 231.803 137.895C232.778 136.893 233.842 135.958 235.073 135.505C235.756 135.254 237.106 135.017 237.938 135.441C237.815 135.541 237.704 135.66 237.608 135.795C237.343 136.237 237.142 136.727 237.013 137.247C235.762 141.123 232.413 143.113 229.738 145.754L227.295 148.165C226.962 148.494 226.593 148.975 226.757 149.453C226.869 149.695 227.051 149.881 227.268 149.977C228.689 150.813 230.356 151.149 231.527 152.423C231.955 152.891 232.365 153.507 232.945 153.542C233.251 153.521 233.552 153.441 233.836 153.305C234.283 153.161 234.753 153.142 235.207 153.25C235.661 153.358 236.088 153.59 236.455 153.928C236.663 154.17 236.904 154.367 237.168 154.512C237.389 154.582 237.619 154.599 237.846 154.562C238.479 154.509 239.15 154.441 239.718 154.778C240.286 155.114 240.752 155.907 241.415 155.964C241.745 155.992 242.131 155.857 242.44 155.9Z" fill="black"/>
<path d="M215.107 107.853C214.542 108.285 213.942 108.774 213.71 109.524C213.52 110.137 213.609 110.838 213.38 111.432C213.151 112.027 212.637 112.441 212.524 113.079C212.444 113.542 212.601 114.031 212.524 114.495C212.457 114.736 212.402 114.982 212.361 115.231C212.331 115.758 212.711 116.187 213.083 116.481C213.874 117.093 214.774 117.477 215.712 117.6C216.65 117.723 217.599 117.582 218.483 117.189C219.276 116.835 219.993 116.258 220.754 115.805C221.496 115.296 222.344 115.05 223.199 115.096C223.69 115.16 224.159 115.373 224.65 115.451C224.892 115.508 225.142 115.493 225.379 115.41C225.615 115.326 225.831 115.175 226.008 114.969C226.16 114.72 226.261 114.433 226.305 114.13C226.718 112.187 226.531 110.126 226.139 108.172C225.747 106.218 225.152 104.338 224.733 102.395C224.436 100.954 224.207 99.4775 223.711 98.1145C223.214 96.7516 222.379 95.4842 221.211 94.9638C221.119 94.91 221.015 94.8938 220.914 94.9178C220.839 94.9551 220.773 95.0134 220.721 95.0877C219.797 96.254 219.101 97.649 218.682 99.173C218.215 100.869 218.088 102.667 217.66 104.37C217.475 105.078 217.238 106.027 216.768 106.568C216.298 107.11 215.639 107.446 215.107 107.853Z" fill="#3F3D56"/>
<path opacity="0.1" d="M226.314 114.119C226.264 114.423 226.158 114.71 226.002 114.958C225.826 115.165 225.61 115.316 225.373 115.399C225.136 115.483 224.886 115.495 224.644 115.436C224.156 115.365 223.687 115.15 223.196 115.082C222.341 115.035 221.492 115.281 220.75 115.79C219.99 116.243 219.264 116.806 218.477 117.171C217.325 117.691 216.066 117.777 214.872 117.415C214.238 117.225 213.635 116.909 213.089 116.481C212.714 116.19 212.337 115.773 212.366 115.231C212.408 114.983 212.463 114.738 212.53 114.498C212.607 114.034 212.453 113.546 212.53 113.082C212.643 112.445 213.16 112.02 213.386 111.432C213.612 110.845 213.525 110.14 213.713 109.528C213.945 108.774 214.548 108.289 215.113 107.853C215.677 107.418 216.349 107.085 216.801 106.558C216.859 106.476 216.912 106.388 216.958 106.296C217.284 105.697 217.523 105.038 217.666 104.345C218.102 102.639 218.221 100.844 218.685 99.1446C219.105 97.6219 219.803 96.2282 220.727 95.0629C220.776 94.9869 220.842 94.9282 220.917 94.893C221.017 94.8687 221.121 94.8835 221.214 94.9354C222.379 95.4594 223.214 96.7268 223.714 98.0897C224.213 99.4526 224.424 100.922 224.736 102.366C225.152 104.31 225.749 106.197 226.142 108.147C226.534 110.098 226.727 112.172 226.314 114.119Z" fill="black"/>
<path opacity="0.1" d="M235.153 70.9442C233.755 71.4731 232.243 71.368 230.907 70.6492C229.57 69.9304 228.504 68.6485 227.913 67.05C227.936 66.7183 227.976 66.3885 228.032 66.0623C228.329 64.4339 229.601 65.0286 230.606 65.4605C231.815 65.9284 232.984 66.5317 234.098 67.2624C234.437 67.4707 234.732 67.7686 234.96 68.1333C235.4 68.9157 235.224 69.9565 235.153 70.9442Z" fill="black"/>
<path d="M233.358 70.9227C236.64 70.9227 239.302 67.7528 239.302 63.8424C239.302 59.9321 236.64 56.7622 233.358 56.7622C230.075 56.7622 227.414 59.9321 227.414 63.8424C227.414 67.7528 230.075 70.9227 233.358 70.9227Z" fill="#BE6F72"/>
<path opacity="0.1" d="M249.487 116.753C249.487 117.341 248.818 117.528 248.322 117.497C246.539 117.373 244.794 116.789 243.029 116.966C240.797 117.206 238.746 118.675 236.508 118.81C235.646 118.863 234.769 118.711 233.919 118.898C232.82 119.143 231.839 119.939 230.718 120.053C229.747 120.152 228.787 119.716 227.815 119.762C227.135 119.811 226.473 120.035 225.874 120.421C225.939 119.671 226.221 118.972 226.671 118.442C227.381 117.61 228.391 117.826 229.372 117.628C230.35 117.376 231.306 117.012 232.225 116.541C234.804 115.33 237.519 114.582 240.282 114.321C243.058 114.058 245.845 114.584 248.417 115.854C248.791 116.034 249.144 116.272 249.466 116.562C249.482 116.624 249.489 116.688 249.487 116.753Z" fill="black"/>
<path d="M230.608 76.7712L228.201 75.7091L227.185 75.2631C226.77 75.0563 226.334 74.9182 225.889 74.8524C224.724 74.7462 223.627 75.6702 223.006 76.8491C222.385 78.0279 222.15 79.4333 221.951 80.8034C221.677 82.6773 221.446 84.5583 221.255 86.4463C221.051 88.1513 220.946 89.8713 220.943 91.5937C221.012 95.9763 221.79 100.299 222.646 104.565C223.066 106.456 223.382 108.378 223.594 110.317C223.666 111.117 223.698 111.921 223.77 112.725C223.847 113.627 223.972 114.519 224.097 115.415L224.813 120.502C225.705 119.748 226.718 119.086 227.815 119.047C228.787 119.005 229.749 119.437 230.718 119.338C231.833 119.228 232.82 118.431 233.919 118.187C234.769 117.999 235.646 118.148 236.511 118.099C238.746 117.964 240.799 116.491 243.028 116.254C244.797 116.063 246.553 116.658 248.325 116.782C248.818 116.817 249.487 116.629 249.487 116.038C249.487 115.628 249.142 115.355 248.842 115.15C247.427 114.135 246.08 112.99 244.815 111.726C243.644 110.622 242.455 109.489 241.649 107.995C239.709 104.402 240.374 99.5412 238.719 95.7498C237.373 92.6698 238.719 88.6341 238.719 85.1613C238.719 83.4301 238.719 81.6778 238.377 79.9962C238.164 79.0557 237.898 78.1332 237.581 77.2349L236.425 73.7479C236.401 73.646 236.353 73.5541 236.288 73.4824C236.21 73.4186 236.118 73.3852 236.023 73.3868C235.329 73.3372 234.644 73.5986 234.104 74.1196C233.56 74.6471 233.212 75.4047 232.677 75.9534C232.091 76.5588 231.337 77.0898 230.608 76.7712Z" fill="#E3E8F4"/>
<path d="M234.493 74.7603C234.683 73.7903 234.888 72.7814 235.432 72.0238C235.976 71.2662 236.969 70.8662 237.67 71.4078C238.467 72.0238 238.499 73.4469 239.18 74.2399C239.774 74.9196 240.666 74.9727 241.474 75.0612C242.928 75.2188 244.355 75.6192 245.715 76.2507C245.981 76.3486 246.222 76.521 246.42 76.7534C246.791 77.2561 246.717 78.0278 246.901 78.6544C247.154 79.4616 247.852 79.9749 248.123 80.7785C248.42 81.6706 248.123 82.6689 247.873 83.5858C247.424 85.232 247.142 86.9418 246.705 88.5951C246.268 90.2483 245.647 91.8768 244.625 93.1229C244.173 93.6751 243.501 94.1849 242.907 93.8557L242.678 95.8205C242.611 96.2356 242.611 96.6621 242.678 97.0772C242.712 97.2849 242.795 97.4768 242.917 97.6308C243.039 97.7849 243.195 97.8948 243.367 97.9481C243.412 98.2525 243.682 98.3977 243.902 98.5641C244.065 98.6963 244.203 98.8656 244.31 99.0622C244.417 99.2587 244.491 99.4787 244.526 99.7092C244.561 99.9397 244.557 100.176 244.515 100.405C244.473 100.634 244.393 100.85 244.28 101.042C244.093 101.343 243.816 101.58 243.727 101.938C243.593 102.455 243.911 103 244.298 103.283C244.684 103.566 245.139 103.697 245.531 103.97C246.345 104.529 246.782 105.63 247.062 106.699C247.27 107.506 247.442 108.381 247.953 108.968C248.149 109.191 248.384 109.361 248.571 109.595C248.895 110.051 249.083 110.623 249.103 111.22C249.185 111.96 249.048 112.711 248.717 113.344C248.123 114.357 247.014 114.657 246.042 115.114C244.464 115.886 243.165 117.267 241.774 118.442C241.208 118.985 240.54 119.359 239.828 119.532C238.865 119.684 237.917 119.178 236.948 119.132C236.368 119.139 235.791 119.229 235.23 119.401L233.447 119.861C233.542 118.215 232.781 116.566 232.356 114.997C231.554 112.045 231.405 108.887 231.595 105.793C231.785 102.699 232.314 99.6473 232.838 96.6099C233.203 94.4858 233.167 92.2662 233.729 90.2023C234.255 88.2163 235.007 86.3082 235.283 84.2407C235.735 80.8953 233.857 78.0597 234.493 74.7603Z" fill="#3F3D56"/>
<path d="M248.013 81.3059C248.177 81.6656 248.292 82.0539 248.354 82.4564C248.492 83.08 248.749 83.657 249.106 84.1415C249.405 84.4557 249.671 84.8123 249.897 85.2036C250.17 85.8195 250.066 86.57 250.194 87.2427C250.343 87.9755 250.774 88.6127 250.836 89.3667C250.838 89.5828 250.855 89.7983 250.887 90.011C251.08 90.8677 252.138 91.0731 252.373 91.9298C252.53 92.4856 252.26 93.0909 252.31 93.6751C252.347 93.8557 252.356 94.0428 252.337 94.2273C252.27 94.4359 252.152 94.6159 251.998 94.7442C251.014 95.8634 250.334 97.3068 250.042 98.8897C249.756 100.464 249.606 102.069 249.594 103.679L248.432 101.849C248.309 101.627 248.151 101.435 247.968 101.283C247.819 101.177 247.647 101.123 247.495 101.017C247.056 100.72 246.883 100.09 246.714 99.5233C246.243 97.9554 245.538 96.5018 244.633 95.2327C244.161 94.5707 243.611 93.9052 243.507 93.0449C243.476 92.6498 243.494 92.2514 243.561 91.8625C243.858 89.5437 244.176 87.1683 245.124 85.1115C245.567 84.1486 246.14 83.2777 246.565 82.3006C246.851 81.6528 247.252 79.9677 248.013 81.3059Z" fill="#3F3D56"/>
<path d="M218.694 83.5328C218.699 83.8308 218.636 84.1248 218.51 84.3824C218.396 84.5392 218.248 84.6554 218.082 84.7179C217.916 84.7804 217.739 84.7868 217.571 84.7364C217.232 84.6353 216.913 84.4574 216.631 84.2125C215.803 83.5894 214.975 82.9652 214.147 82.3398C213.684 82.0078 213.239 81.6437 212.812 81.2494C212.16 80.5939 211.57 79.8569 211.05 79.051C209.605 76.9269 208.328 74.6223 206.72 72.6788C206.283 72.1478 205.828 71.638 205.406 71.0822C204.829 70.2788 204.299 69.4296 203.819 68.5404C203.355 67.7226 202.874 66.8163 202.954 65.8393C203.002 65.287 203.225 64.7772 203.29 64.2285C203.355 63.6798 203.18 63.0107 202.734 62.862C202.681 62.8463 202.628 62.8356 202.574 62.8302C202.486 62.8191 202.399 62.7965 202.315 62.7629C201.902 62.5576 201.964 61.7965 202.262 61.3964C202.559 60.9964 202.999 60.7734 203.269 60.3344C203.395 60.0739 203.536 59.8243 203.691 59.5874C203.89 59.3842 204.128 59.242 204.384 59.1732C206.098 58.5715 207.911 58.4899 209.659 58.936C209.956 59.0139 210.295 59.1555 210.384 59.4989C210.42 59.6662 210.42 59.8414 210.384 60.0087C210.253 60.7067 210.177 61.4179 210.158 62.1328C210.158 62.2818 210.165 62.4308 210.179 62.5788C210.319 64.0798 211.136 65.3507 211.933 66.5225C212.878 67.9173 213.838 69.3015 214.801 70.6822C215.321 71.4822 215.903 72.2229 216.539 72.8947C217.134 73.4824 217.903 73.9568 218.367 74.7108C218.744 75.3197 218.623 76.1516 218.664 76.8845C218.802 79.0971 218.812 81.3185 218.694 83.5328Z" fill="#3F3D56"/>
<path d="M256.439 98.3021C256.732 97.9621 256.997 97.5886 257.229 97.1869C257.479 96.6892 257.679 96.158 257.824 95.6045L259.547 89.781C259.821 88.8605 260.094 87.9366 260.439 87.0409C260.796 86.0745 261.218 85.1434 261.607 84.2088C262.608 81.7493 263.383 79.1676 263.916 76.509C264.01 76.1438 264.041 75.7597 264.008 75.3798C263.925 74.7673 263.536 74.2894 263.164 73.854C262.791 73.3733 262.365 72.9543 261.898 72.6078C261.664 72.4342 261.403 72.3179 261.13 72.2657C260.858 72.2134 260.579 72.2262 260.311 72.3034C259.55 72.5689 259.072 73.4964 258.897 74.4275C258.721 75.3585 258.787 76.3108 258.712 77.2596C258.605 78.619 258.213 79.9324 258.118 81.2953C258.067 82.0847 258.118 82.8813 258.038 83.6672C257.891 84.6992 257.589 85.6911 257.146 86.5949C256.18 88.7476 254.876 90.6587 253.303 92.2237C252.872 92.6024 252.485 93.0463 252.15 93.5441C251.87 94.042 251.681 94.6039 251.594 95.1938C251.397 96.0921 251.482 97.0455 251.835 97.8737C252.319 98.8578 253.25 99.2897 254.138 99.5092C255.339 99.8066 255.615 99.3181 256.439 98.3021Z" fill="#BE6F72"/>
<path d="M233.394 53.5832C233.649 53.0105 234.041 52.5403 234.52 52.2311C234.999 51.922 235.544 51.7877 236.086 51.845C236.633 51.9603 237.141 52.2555 237.554 52.6972C237.967 53.1389 238.268 53.7095 238.422 54.3443C238.562 54.8718 238.618 55.4559 238.862 55.9091C239.231 56.5923 239.914 56.7906 240.425 57.2862C240.731 57.6239 240.976 58.0309 241.148 58.4831C241.319 58.9354 241.413 59.4239 241.424 59.92C241.452 60.9334 241.318 61.9439 241.029 62.8973C240.906 63.3041 240.806 63.7204 240.731 64.1434C240.672 64.5541 240.666 64.9718 240.613 65.3824C240.547 65.9149 240.392 66.4263 240.158 66.8866C239.924 67.3468 239.614 67.7466 239.248 68.0623C239.144 68.1635 239.014 68.2197 238.88 68.2216C238.648 68.1898 238.505 67.8676 238.419 67.5773C237.947 65.9524 238.06 63.9664 237.189 62.6707C236.793 62.148 236.314 61.7234 235.78 61.421C235.562 61.2538 235.317 61.1439 235.061 61.0989C234.684 61.123 234.322 61.2808 234.021 61.552C233.393 62.0532 232.697 62.4198 231.964 62.6353C231.598 62.7386 231.217 62.7432 230.85 62.6489C230.482 62.5546 230.137 62.3637 229.839 62.0901C229.429 61.6866 229.129 61.0812 228.674 60.7661C228.219 60.4511 227.744 60.4688 227.295 60.2528C227.009 60.1079 226.754 59.8872 226.551 59.6074C226.347 59.3276 226.2 58.9962 226.121 58.6383C226.041 58.2805 226.031 57.9057 226.091 57.5426C226.151 57.1794 226.281 56.8375 226.469 56.5428C226.766 56.1179 227.206 55.8772 227.47 55.4064C227.812 54.7975 227.782 53.962 227.946 53.2327C228.043 52.7714 228.23 52.3441 228.493 51.9864C228.756 51.6287 229.087 51.3509 229.459 51.1759C229.819 51.0303 230.205 51.0024 230.577 51.0952C230.949 51.188 231.294 51.398 231.575 51.7034C231.872 52.022 232.11 52.4327 232.401 52.7655C232.688 53.0933 233.04 53.3299 233.425 53.4537C233.809 53.5774 234.213 53.5842 234.6 53.4735" fill="#3F3D56"/>
<path opacity="0.1" d="M238.279 105.69C238.106 105.874 237.984 106.115 237.927 106.383C237.871 106.651 237.884 106.932 237.964 107.191C238.03 107.358 241.097 106.653 241.421 106.6C242.229 106.462 243.647 106.529 244.191 105.648C245.16 104.087 242.158 104.434 241.608 104.49C240.562 104.596 239.076 104.766 238.279 105.69Z" fill="black"/>
<path d="M210.378 60.0229C210.247 60.7209 210.171 61.432 210.152 62.1469C209.26 62.3629 208.333 62.0089 207.477 61.6549L205.019 60.6565C204.87 60.5427 204.69 60.501 204.515 60.5398C204.341 60.5786 204.185 60.695 204.08 60.8654C203.685 61.3539 203.141 62.2815 202.594 62.8302C202.506 62.8191 202.419 62.7965 202.336 62.7629C201.922 62.5576 201.985 61.7965 202.282 61.3964C202.579 60.9964 203.019 60.7734 203.29 60.3344C203.415 60.0739 203.556 59.8243 203.712 59.5874C203.911 59.3842 204.148 59.242 204.404 59.1732C206.118 58.5715 207.932 58.4899 209.68 58.936C209.977 59.0139 210.316 59.1555 210.405 59.4989C210.434 59.6734 210.424 59.8538 210.378 60.0229Z" fill="#3F3D56"/>
<path opacity="0.1" d="M210.378 60.0229C210.247 60.7209 210.171 61.432 210.152 62.1469C209.26 62.3629 208.333 62.0089 207.477 61.6549L205.019 60.6565C204.87 60.5427 204.69 60.501 204.515 60.5398C204.341 60.5786 204.185 60.695 204.08 60.8654C203.685 61.3539 203.141 62.2815 202.594 62.8302C202.506 62.8191 202.419 62.7965 202.336 62.7629C201.922 62.5576 201.985 61.7965 202.282 61.3964C202.579 60.9964 203.019 60.7734 203.29 60.3344C203.415 60.0739 203.556 59.8243 203.712 59.5874C203.911 59.3842 204.148 59.242 204.404 59.1732C206.118 58.5715 207.932 58.4899 209.68 58.936C209.977 59.0139 210.316 59.1555 210.405 59.4989C210.434 59.6734 210.424 59.8538 210.378 60.0229Z" fill="black"/>
<path opacity="0.1" d="M232.861 127.232C233.289 127.402 233.753 127.65 233.898 128.159L230.457 127.119L228.674 126.577C228.359 126.481 227.229 126.372 227.021 126.078C226.724 125.646 227.779 125.943 227.969 125.975C228.546 126.078 229.122 126.184 229.696 126.308C230.778 126.538 231.818 126.917 232.861 127.232Z" fill="black"/>
<path opacity="0.1" d="M234.196 130.861C233.899 130.623 233.046 130.652 232.68 130.549C232.145 130.397 231.619 130.195 231.093 130C230.026 129.586 228.968 129.115 227.871 128.811C227.669 128.758 226.98 128.744 227.012 128.439C227.045 128.135 227.702 128.028 227.865 128.014C228.837 127.929 230.05 128.471 230.953 128.857C232.105 129.348 233.195 130.022 234.196 130.861Z" fill="black"/>
<path opacity="0.1" d="M232.014 123.996C230.923 123.642 229.934 122.835 228.81 122.679C228.518 122.693 228.23 122.588 227.993 122.382C227.861 122.227 227.769 122.031 227.729 121.816C228.48 121.77 229.354 122.148 230.038 122.506C230.414 122.698 230.776 122.928 231.12 123.193C231.369 123.373 231.744 123.894 232.014 123.996Z" fill="black"/>
<path d="M252.806 92.2981C252.622 93.7699 252.889 95.2716 253.558 96.5282C254.227 97.7849 255.254 98.7125 256.45 99.1412C256.305 99.9802 255.576 100.444 255.062 101.042C254.337 101.881 253.963 103.138 253.107 103.775C252.153 104.483 250.925 104.207 249.837 103.91C249.738 103.897 249.647 103.84 249.582 103.75C249.559 103.708 249.543 103.661 249.534 103.612C249.175 102.044 248.94 100.37 249.308 98.7978C249.606 97.4596 250.319 96.3197 250.889 95.1373C251.46 93.9549 251.514 92.6875 252.806 92.2981Z" fill="#3F3D56"/>
<path d="M226.234 71.9989C225.083 72.0987 223.966 72.5039 222.964 73.1849C222.299 73.638 221.615 74.2469 220.854 74.1372C220.406 74.077 219.963 73.7831 219.526 73.9248C219.28 74.043 219.05 74.2054 218.845 74.4062C218.741 74.5048 218.618 74.5697 218.486 74.5945C218.355 74.6193 218.221 74.6032 218.096 74.5478L217.799 79.4473C217.686 81.3094 217.576 83.2105 217.951 85.0266C218.144 85.9541 218.569 86.7966 218.616 87.7383C218.664 88.68 218.593 89.6464 218.649 90.5987C218.703 91.4802 218.866 92.3475 218.908 93.229C218.991 94.8929 218.646 96.5426 218.313 98.1604C217.811 100.546 217.508 102.986 216.53 105.145C216.257 105.743 215.936 106.352 215.936 107.032C215.936 107.117 215.936 107.198 215.953 107.28C215.656 107.474 215.38 107.659 215.127 107.85C214.563 108.285 213.959 108.77 213.727 109.524C213.54 110.137 213.626 110.838 213.4 111.429C213.175 112.02 212.657 112.441 212.545 113.078C212.464 113.542 212.619 114.031 212.545 114.495C212.477 114.734 212.423 114.979 212.381 115.227C212.351 115.758 212.729 116.187 213.103 116.477C213.649 116.906 214.252 117.222 214.886 117.412L216.661 109.021C218.278 105.459 219.624 101.73 220.682 97.8807C220.985 96.6225 221.373 95.3958 221.844 94.2132C222.18 93.5441 222.478 92.8487 222.736 92.1316C223.006 91.2395 223.033 90.273 223.164 89.3313C223.319 88.2323 223.552 87.151 223.862 86.0992C224.183 84.9628 224.555 83.83 224.62 82.637C224.718 80.9307 224.198 79.1287 224.751 77.5498C224.985 76.9589 225.291 76.4115 225.657 75.9249C226.424 74.8062 227.122 73.6345 227.889 72.5158C227.491 72.0095 226.828 71.9564 226.234 71.9989Z" fill="#3F3D56"/>
<g opacity="0.1">
<path opacity="0.1" d="M234.609 52.4185L234.237 52.4503L234.196 52.4857C234.335 52.479 234.473 52.4565 234.609 52.4185Z" fill="black"/>
<path opacity="0.1" d="M241.409 59.7678C241.347 60.4716 241.219 61.165 241.028 61.8352C240.906 62.242 240.806 62.6583 240.731 63.0813C240.672 63.4919 240.666 63.9097 240.612 64.3203C240.546 64.8528 240.392 65.3642 240.158 65.8244C239.923 66.2847 239.614 66.6844 239.248 67.0002C239.144 67.1014 239.014 67.1576 238.88 67.1595C238.648 67.1277 238.505 66.8055 238.419 66.5152C237.946 64.8903 238.059 62.9043 237.189 61.6086C236.792 61.0859 236.314 60.6613 235.78 60.3589C235.562 60.1917 235.317 60.0818 235.061 60.0368C234.684 60.0609 234.321 60.2187 234.02 60.4899C233.393 60.9911 232.697 61.3577 231.964 61.5732C231.598 61.6765 231.217 61.6811 230.849 61.5868C230.482 61.4925 230.137 61.3016 229.839 61.028C229.429 60.6245 229.128 60.0191 228.674 59.704C228.219 59.389 227.743 59.4067 227.295 59.1907C227.014 59.0481 226.765 58.8321 226.564 58.5588C226.363 58.2854 226.217 57.9618 226.136 57.6118C226.125 57.5677 226.117 57.5227 226.112 57.4773C226.038 57.8725 226.046 58.2833 226.136 58.6739C226.217 59.0238 226.363 59.3475 226.564 59.6208C226.765 59.8941 227.014 60.1101 227.295 60.2527C227.743 60.4687 228.249 60.4722 228.674 60.7661C229.099 61.0599 229.429 61.6865 229.839 62.0901C230.137 62.3636 230.482 62.5545 230.849 62.6488C231.217 62.7431 231.598 62.7385 231.964 62.6352C232.697 62.4198 233.393 62.0532 234.02 61.552C234.321 61.2808 234.684 61.123 235.061 61.0988C235.317 61.1439 235.562 61.2537 235.78 61.421C236.307 61.7292 236.779 62.1574 237.168 62.6813C238.039 63.9769 237.926 65.963 238.398 67.5879C238.484 67.8817 238.627 68.2003 238.859 68.2322C239.001 68.233 239.14 68.1727 239.248 68.0622C239.616 67.7456 239.926 67.3443 240.161 66.8821C240.396 66.42 240.55 65.9064 240.615 65.3718C240.669 64.9611 240.675 64.5434 240.734 64.1327C240.809 63.7097 240.909 63.2934 241.031 62.8866C241.321 61.9332 241.455 60.9227 241.427 59.9094C241.421 59.8669 241.415 59.8173 241.409 59.7678Z" fill="black"/>
</g>
<path d="M222.605 88.1738L222.403 91.406C222.373 91.8449 221.669 102.295 216.474 114.509C212.016 124.984 203.34 138.628 186.961 146.296C185.683 146.897 184.357 147.459 182.982 147.981L181.448 142.246C185.298 140.802 189.007 138.87 192.51 136.482C200.859 130.74 207.349 122.545 211.876 111.999C214.277 106.384 215.989 100.387 216.958 94.192H198.323V88.1738H222.605Z" fill="#72B874"/>
<path opacity="0.1" d="M184.955 146.299C201.331 138.631 210.009 124.991 214.465 114.516C219.66 102.302 220.367 91.8591 220.394 91.413L220.596 88.1809H222.676L222.474 91.413C222.447 91.852 221.74 102.302 216.545 114.516C212.087 124.991 203.412 138.631 187.036 146.299C185.758 146.901 184.43 147.464 183.053 147.988L182.851 147.234C183.568 146.929 184.27 146.618 184.955 146.299Z" fill="white"/>
<path d="M152.168 142.246L150.634 147.981C149.257 147.457 147.93 146.894 146.652 146.292C130.276 138.624 121.598 124.984 117.143 114.509C111.947 102.295 111.24 91.852 111.213 91.406L111.011 88.1738H135.281V94.192H116.643C117.617 100.388 119.334 106.385 121.74 111.999C126.267 122.545 132.755 130.74 141.103 136.479C144.607 138.869 148.316 140.803 152.168 142.246Z" fill="#72B874"/>
<path opacity="0.1" d="M148.655 146.299C132.279 138.631 123.601 124.991 119.146 114.516C113.951 102.302 113.243 91.8591 113.217 91.413L113.015 88.1809H110.934L111.136 91.413C111.163 91.852 111.87 102.302 117.065 114.516C121.523 124.991 130.199 138.631 146.575 146.299C147.853 146.901 149.18 147.464 150.557 147.988L150.759 147.234C150.044 146.929 149.343 146.618 148.655 146.299Z" fill="white"/>
<path d="M194.843 197.684V230.136H138.77V197.684L140.553 194.852C158.724 187.17 162.407 167.136 163.141 159.21C163.25 158.114 163.312 157.013 163.328 155.91H170.262C170.277 157.013 170.34 158.114 170.449 159.21C171.195 167.136 174.877 187.177 193.036 194.852L194.843 197.684Z" fill="#72B874"/>
<path opacity="0.1" d="M194.843 197.684H138.77V201.755H194.843V197.684Z" fill="black"/>
<path opacity="0.1" d="M143.525 194.852C161.696 187.17 165.379 167.136 166.113 159.21C166.222 158.114 166.284 157.013 166.3 155.91H163.328C163.312 157.013 163.25 158.114 163.141 159.21C162.395 167.136 158.712 187.177 140.553 194.852L138.77 197.684V230.136H141.742V197.684L143.525 194.852Z" fill="white"/>
<path opacity="0.1" d="M130.252 88.1738H135.281V94.192H130.698C130.517 92.2096 130.369 90.2035 130.252 88.1738Z" fill="black"/>
<path opacity="0.1" d="M152.168 142.246L150.634 147.981C149.257 147.457 147.93 146.894 146.652 146.292C144.55 143.234 142.692 139.949 141.103 136.479C144.607 138.869 148.316 140.803 152.168 142.246Z" fill="black"/>
<path opacity="0.1" d="M181.445 142.245C185.295 140.802 189.004 138.87 192.507 136.482C190.917 139.953 189.06 143.239 186.958 146.299C185.68 146.901 184.354 147.462 182.979 147.984L181.445 142.245Z" fill="black"/>
<path opacity="0.1" d="M203.358 88.1738C203.241 90.2035 203.093 92.2096 202.912 94.192H198.333V88.1738H203.358Z" fill="black"/>
<path opacity="0.1" d="M170.461 159.21C168.047 159.767 165.566 159.767 163.152 159.21C163.262 158.114 163.324 157.013 163.34 155.91H170.273C170.289 157.013 170.351 158.114 170.461 159.21Z" fill="black"/>
<path d="M130.847 78.2048C130.974 122.832 147.023 158.92 166.808 158.92C186.593 158.92 202.639 122.832 202.77 78.2048H130.847Z" fill="#72B874"/>
<path opacity="0.1" d="M137.237 78.2048H130.847C130.974 122.832 147.023 158.92 166.808 158.92C167.879 158.917 168.947 158.81 170.003 158.597C151.713 154.958 137.358 120.403 137.237 78.2048Z" fill="white"/>
<path d="M185.876 210.106H147.736V221.789H185.876V210.106Z" fill="#3F3D56"/>
<path opacity="0.1" d="M149.52 211.699H185.876V210.106H147.736V221.789H149.52V211.699Z" fill="white"/>
<path d="M110.506 121.292C109.819 121.019 105.777 117.21 105.471 115.486C105.165 113.762 107.608 97.7004 107.608 97.7004C107.608 97.7004 107.382 97.7004 107.014 97.6473V97.3889L107.516 76.2897C107.516 76.2897 109.576 62.1293 105.685 62.9541C101.795 63.779 104.235 76.2897 104.235 76.2897C104.235 76.2897 103.792 82.6407 103.48 84.5453C103.183 86.3826 101.822 93.8665 102.749 96.1923C102.783 96.2749 102.82 96.3553 102.862 96.433C102.862 96.433 103.016 104.416 101.337 105.506C99.7352 106.544 99.0695 111.765 99.013 112.233L98.9268 112.19C98.4485 111.834 98.0286 111.377 97.6875 110.841C97.6518 110.788 97.6251 110.732 97.5924 110.675C98.6858 109.21 99.2752 107.307 99.2426 105.347C99.2101 103.387 98.5582 101.513 97.417 100.101C96.8864 99.4441 96.2639 98.9026 95.5773 98.5005C95.5574 97.824 95.4229 97.1594 95.182 96.5463C94.4093 94.578 90.1296 92.0043 87.0892 91.9442C85.6864 91.8946 84.5362 92.369 84.1172 93.6753C83.9032 94.3373 83.9686 95.0913 83.8794 95.7781C83.7011 97.1942 82.9373 98.3022 81.9565 99.1837C81.5605 98.6571 81.1323 98.1661 80.6756 97.7146C79.6829 96.8083 77.7035 93.8204 77.7035 93.8204C77.7035 93.8204 71.5247 86.1985 71.067 84.1099C70.6093 82.0212 64.4364 69.4786 63.0633 71.6628C61.6903 73.8471 67.7918 83.3665 67.7918 83.3665C67.7918 83.3665 68.9509 86.8251 69.8425 87.9934C70.7341 89.1616 77.5698 100.986 77.5698 100.986L77.8967 101.793C76.4523 102.699 75.1327 103.853 74.6661 105.652C73.9826 108.3 75.4775 110.962 76.5118 113.44C78.5268 118.276 78.8151 124.442 76.2146 128.861C73.8845 132.762 69.8425 134.617 66.0591 136.238C67.8863 137.947 70.1562 138.845 72.4787 138.776C71.6049 141.793 68.5081 142.791 65.8689 143.35C67.2539 144.936 69.2362 145.513 71.1383 145.864C72.0699 146.053 73.0139 146.141 73.9588 146.129H74.1906L74.4224 146.108C74.7446 146.083 75.0651 146.034 75.3824 145.963C76.7555 145.63 78.0899 144.738 78.7913 143.294C79.3857 142.058 79.5938 140.373 80.6726 139.754C80.9535 139.602 81.2562 139.517 81.5642 139.502H81.5315C81.7336 139.502 81.9417 139.502 82.1438 139.502L86.6404 139.555C86.8277 139.555 87.0209 139.555 87.214 139.555C88.4831 139.52 89.8383 139.258 90.4833 138.008C90.7486 137.401 90.8882 136.728 90.8904 136.043C90.9855 134.348 90.8904 132.602 90.9291 130.893C91.3125 134.004 91.7137 138.854 90.7597 140.646C89.9846 142.003 89.0452 143.216 87.9719 144.246C87.7019 144.516 87.4551 144.817 87.2348 145.145C87.0892 145.269 87.003 145.336 87.003 145.336L86.9109 145.666C86.5722 146.277 86.3267 146.956 86.1857 147.669C86.1338 147.852 86.1146 148.047 86.1292 148.239C86.2333 148.491 85.3862 149.528 85.6329 149.963C83.5168 152.919 83.1156 157.397 83.1156 157.397L79.252 164.386C77.2667 170.599 74.2946 171.236 74.2946 171.236C74.2946 171.236 67.3133 165.657 67.1231 165.384C66.9329 165.111 64.264 163.748 64.264 163.748C63.9494 163.091 63.469 162.568 62.891 162.255C61.9756 161.801 61.8983 160.13 61.8983 160.13C61.7854 156.183 59.8387 155.882 59.8387 155.882C58.2694 155.723 57.0717 156.056 56.1504 156.665L55.871 156.689C54.5217 156.82 52.899 156.966 51.1158 157.107C46.1555 157.497 44.9756 161.323 44.9756 161.323C44.9756 161.323 44.3663 162.141 45.1658 163.026C45.9652 163.911 51.0831 163.026 51.3 163.005C50.91 163.055 50.5156 163.023 50.135 162.909C50.9404 162.874 52.049 162.839 52.9941 162.839H53.2229C53.1634 163.435 53.1347 164.036 53.1368 164.637C53.1368 165.77 55.767 166.496 55.767 166.496L63.7766 174.992C63.7766 174.992 68.8112 177.672 72.0151 181.527C75.2189 185.382 78.0513 182.054 78.0513 182.054C81.4424 181.056 91.1995 167.005 91.2084 166.991C91.2084 167.402 91.4135 181.067 91.8029 183.81C91.8183 183.95 91.8472 184.086 91.889 184.217C92.3467 185.396 91.7345 188.618 91.47 189.977C91.3013 191.115 91.2365 192.271 91.2768 193.425C91.2768 193.425 87.6182 210.064 87.9214 211.526C88.2245 212.988 85.939 219.781 85.939 219.781V225.446L86.3373 225.421C86.2855 225.512 86.2379 225.607 86.1946 225.704L86.1679 225.764C86.1679 225.764 88.6079 226.398 90.2485 226.217C91.889 226.037 94.7065 227.722 94.7065 227.722C94.7065 227.722 95.6605 228.26 98.5969 228.487C101.533 228.713 101.533 226.943 101.533 226.943C101.197 224.532 96.5581 223.725 96.4154 223.7C96.041 223.421 95.6903 223.116 95.402 222.854L95.3425 222.798C95.362 222.745 95.3788 222.69 95.3931 222.635C95.8894 220.228 93.1432 219.183 93.1432 219.183V218.596C94.9264 217.505 95.2801 210.021 95.2801 210.021C95.2801 210.021 97.955 200.768 98.3294 199.224C98.7039 197.681 98.3294 195.369 98.3294 195.369L98.5969 193.372C98.5969 193.372 99.1705 192.013 99.1705 191.74C99.2448 191.049 99.468 190.393 99.8184 189.836C100.237 189.244 99.3607 187.839 99.3607 187.839L100.125 185.481V182.893L101.908 173.505C101.908 173.505 103.777 162.57 103.129 158.991C102.481 155.411 103.893 153.592 103.893 153.592C103.766 153.672 103.635 153.742 103.501 153.804C103.679 153.313 103.833 152.809 103.961 152.296L107.974 152.887V152.958H109.421C109.421 152.958 108.963 146.232 108.963 143.52C108.963 140.808 110.506 131.077 110.506 131.077C110.506 131.077 111.192 121.564 110.506 121.292ZM92.6945 113.44C92.6945 113.705 92.6736 113.981 92.6588 114.265L92.5785 114.41L92.4299 114.261L92.2487 114.597L92.1952 114.629C91.8028 114.389 91.6008 113.011 91.3184 113.309L91.2798 113.348C91.2174 113.263 91.1549 113.238 91.0896 113.309L91.0301 113.369C91.0301 113.266 91.0301 113.16 91.0301 113.054C91.5738 113.221 92.133 113.305 92.6945 113.305C92.6974 113.351 92.6945 113.397 92.6945 113.44ZM106.039 144.763H106.125L105.982 145.209C106 145.06 106.018 144.915 106.039 144.763ZM91.3897 225.042L90.8429 224.879L91.1401 224.819L91.4165 225.035L91.4492 225.063L91.3897 225.042ZM96.9771 224.09C96.7959 223.977 96.6116 223.846 96.4333 223.711C96.4927 223.75 96.7275 223.895 96.9771 224.09Z" fill="url(#paint1_linear)"/>
<path d="M108.012 138.075L104.413 149.248H105.287L101.902 152.462L108.012 153.369V138.075Z" fill="#F86D70"/>
<path opacity="0.1" d="M108.012 138.075L104.413 149.248L103.507 148.958L101.902 152.462L108.012 153.369V138.075Z" fill="black"/>
<path d="M102.369 145.223H108.013L110.084 124.92H102.369V145.223Z" fill="#F86D70"/>
<path opacity="0.1" d="M102.369 145.223H108.013L110.084 124.92H102.369V145.223Z" fill="black"/>
<path d="M91.3451 129.728L92.5636 129.484L95.3633 128.917C95.3633 128.917 103.771 126.659 105.507 126.474C106.558 126.309 107.584 125.961 108.55 125.441C109.005 125.207 109.293 125.03 109.293 125.03L106.265 118.442L101.566 114.293C101.566 114.293 98.5939 113.539 97.3367 111.479C97.0561 111.035 96.8735 110.515 96.8054 109.966C96.7374 109.417 96.7862 108.856 96.9474 108.335C97.7142 105.503 92.3675 111.043 92.3675 111.043C92.3675 111.043 92.418 112.371 92.3675 114.063C92.3675 114.396 92.3407 114.743 92.3199 115.097C92.3199 115.33 92.2932 115.564 92.2724 115.805C92.1416 117.486 91.8741 119.217 91.3451 120.251C90.0523 122.779 91.3451 129.728 91.3451 129.728Z" fill="#FBBEBE"/>
<path opacity="0.1" d="M92.3677 114.204H92.4866C92.7005 114.204 92.8729 113.663 93.081 113.638C94.7542 113.447 96.2818 113.029 97.3428 111.616C97.063 111.173 96.8808 110.654 96.8128 110.105C96.7448 109.557 96.7932 108.997 96.9535 108.476C97.7203 105.644 92.3736 111.181 92.3736 111.181C92.3736 111.181 92.4301 112.512 92.3677 114.204Z" fill="black"/>
<path d="M85.8589 106.175C85.8585 107.194 86.0267 108.204 86.354 109.145C86.6812 110.087 87.1611 110.943 87.7661 111.663C88.3711 112.384 89.0895 112.956 89.88 113.345C90.6706 113.735 91.5179 113.936 92.3736 113.935C92.5876 113.935 92.7986 113.935 93.0096 113.9C94.2649 113.753 95.4574 113.176 96.4425 112.237C97.4275 111.299 98.1627 110.04 98.5587 108.614C98.9548 107.187 98.9947 105.655 98.6737 104.202C98.3526 102.749 97.6843 101.438 96.75 100.429C95.8157 99.4195 94.6555 98.755 93.4103 98.5159C92.1651 98.2768 90.8883 98.4734 89.7351 99.0819C88.5819 99.6904 87.6017 100.685 86.9136 101.944C86.2256 103.203 85.8592 104.673 85.8589 106.175Z" fill="#FBBEBE"/>
<path d="M83.8588 94.3975C83.6448 95.056 83.7102 95.7923 83.624 96.4897C83.306 99.0067 81.1572 100.515 79.2135 101.57C77.2698 102.625 75.0764 103.874 74.4583 106.306C73.7806 108.937 75.2607 111.574 76.289 114.042C78.2922 118.849 78.5775 124.981 75.9918 129.377C73.6944 133.272 69.6911 135.12 65.9226 136.741C67.7363 138.44 69.9905 139.334 72.2976 139.269C71.4327 142.267 68.3567 143.262 65.7354 143.814C67.1114 145.393 69.0819 145.966 70.9691 146.313C72.3451 146.568 73.7569 146.735 75.1299 146.405C76.503 146.076 77.8048 145.188 78.5121 143.75C79.1065 142.522 79.3086 140.847 80.3815 140.228C80.8658 140.001 81.3876 139.91 81.9062 139.962L86.3642 140.019C87.7521 140.019 89.3957 139.892 90.1119 138.479C90.3761 137.876 90.5147 137.205 90.5161 136.525C90.7093 133.041 90.1476 129.36 91.3513 126.181C91.7139 125.221 89.3868 123.703 89.6305 122.687C90.4686 119.192 90.6796 116.442 90.6707 112.806C90.6707 109.992 92.2072 107.567 93.4763 105.191C94.7453 102.816 95.8063 99.8174 94.8048 97.2685C93.6754 94.4258 85.1932 90.2945 83.8588 94.3975Z" fill="#3F3D56"/>
<path d="M89.7939 224.023L90.9293 224.918L91.1046 225.056L91.1373 225.081L92.4836 226.143L95.628 226.773L98.392 226.547C98.392 226.547 99.1885 224.564 97.9373 224.61C97.5365 224.586 97.146 224.451 96.796 224.217L96.6237 224.115C96.4424 224.001 96.2611 223.874 96.0828 223.739C95.7113 223.46 95.3606 223.155 95.0782 222.897C94.6621 222.514 94.3857 222.224 94.3857 222.224L89.7939 224.023Z" fill="#FBBEBE"/>
<path opacity="0.1" d="M90.9438 224.918L91.1192 225.056L91.1519 225.081L92.4982 226.143L95.6426 226.773L98.4066 226.547C98.4066 226.547 99.2031 224.564 97.9519 224.61C97.5511 224.586 97.1605 224.451 96.8106 224.217C97.0306 224.423 97.2148 224.646 97.2327 224.833C97.2832 225.34 95.1879 226.249 95.1879 226.249L92.2337 225.318C92.2337 225.318 91.7314 225.148 91.0449 224.936L90.9795 224.915L90.9438 224.918Z" fill="black"/>
<path d="M85.8916 225.782C85.8916 225.782 88.3138 226.412 89.9425 226.231C91.5712 226.051 94.3767 227.722 94.3767 227.722C94.3767 227.722 95.3248 228.253 98.2404 228.479C101.156 228.706 101.156 226.943 101.156 226.943C100.823 224.546 96.2164 223.757 96.0738 223.721C96.1302 223.757 96.371 223.902 96.6147 224.097C96.9416 224.352 97.2953 224.684 97.322 224.953C97.3725 225.456 95.2773 226.369 95.2773 226.369L92.3231 225.442C92.3231 225.442 91.8208 225.268 91.1343 225.056H91.0689C90.0509 224.726 89.0166 224.472 87.972 224.295C86.7 224.132 86.0491 225.421 85.9154 225.711C85.9057 225.734 85.8977 225.757 85.8916 225.782Z" fill="#3F3D56"/>
<path d="M47.7129 162.12L48.9998 163.295C48.9998 163.295 49.3743 163.274 49.933 163.253H50.1113C50.9108 163.217 52.0134 163.182 52.9496 163.182C53.5548 163.149 54.1612 163.19 54.7596 163.302C55.4015 163.571 56.5428 158.927 56.5428 158.927L55.2529 158.573L54.825 158.452L54.5278 158.367L53.4786 158.073L50.2986 158.505L48.0636 160.219L47.7129 162.12Z" fill="#FBBEBE"/>
<path opacity="0.1" d="M47.7129 162.12L48.9998 163.295C48.9998 163.295 49.3743 163.274 49.933 163.253C49.6766 163.135 49.4652 162.91 49.3386 162.619C48.5064 159.868 52.6346 158.693 52.6346 158.693L54.5575 158.594L54.9319 158.573H55.2291L54.8012 158.452L54.504 158.367L53.4548 158.073L50.2748 158.505L48.0398 160.219L47.7129 162.12Z" fill="black"/>
<path d="M45.175 163.362C45.9537 164.219 51.0537 163.362 51.2677 163.341C50.8807 163.393 50.4889 163.361 50.1116 163.246C49.9248 163.206 49.7478 163.117 49.5935 162.985C49.4393 162.853 49.3117 162.682 49.22 162.484C48.3878 159.73 52.516 158.559 52.516 158.559L54.4389 158.459L54.8104 158.438L59.4854 158.197L59.7112 156.665C59.7112 156.665 58.1925 156.834 55.809 157.061C54.4686 157.192 52.8369 157.337 51.0745 157.475C46.1499 157.865 44.9789 161.67 44.9789 161.67C44.9789 161.67 44.3815 162.484 45.175 163.362Z" fill="#3F3D56"/>
<path d="M102.371 96.9145C102.403 96.9985 102.441 97.0791 102.484 97.1552L103.62 99.1377L106.574 99.4917L106.606 98.0969L107.103 77.1111C107.103 77.1111 109.148 63.0355 105.284 63.8462C101.42 64.6569 103.845 77.1111 103.845 77.1111C103.845 77.1111 103.406 83.4266 103.096 85.3241C102.796 87.1579 101.45 94.6134 102.371 96.9145Z" fill="#FBBEBE"/>
<path d="M95.7407 149.039L96.5818 150.753L98.4631 154.586C98.4631 154.586 101.875 156.077 102.749 154.94C103.227 154.321 103.744 152.158 104.107 150.338C104.404 148.866 104.603 147.623 104.603 147.623L95.7407 149.039Z" fill="#FBBEBE"/>
<path opacity="0.1" d="M95.7407 149.039L96.5818 150.752C96.6345 150.698 96.6824 150.638 96.7245 150.572C97.6755 149.127 101.863 150.264 104.107 150.356C104.404 148.883 104.603 147.641 104.603 147.641L95.7407 149.039Z" fill="black"/>
<path opacity="0.1" d="M52.9497 163.175C53.5549 163.142 54.1613 163.183 54.7597 163.295C55.4016 163.564 56.5429 158.92 56.5429 158.92L54.8251 158.438L59.5001 158.197L59.7259 156.665C59.7259 156.665 58.2072 156.834 55.8237 157.061C55.3311 157.399 54.8917 157.836 54.5249 158.353L54.4536 158.459C53.4579 159.914 53.0894 161.791 52.9497 163.175Z" fill="black"/>
<path opacity="0.1" d="M89.7939 224.023L91.1046 225.056C93.0602 224.635 94.8464 223.973 95.0574 222.932C95.0584 222.916 95.0584 222.899 95.0574 222.883C94.6413 222.5 94.3649 222.21 94.3649 222.21L89.7939 224.023Z" fill="black"/>
<path opacity="0.1" d="M85.9185 225.722C87.6454 225.619 89.3661 225.399 91.072 225.063C90.0531 224.73 89.0178 224.474 87.9721 224.295C86.7031 224.132 86.0522 225.421 85.9185 225.722Z" fill="black"/>
<path d="M53.0923 164.963C53.0923 166.092 55.7047 166.814 55.7047 166.814L63.6608 175.25C63.6608 175.25 68.6598 177.912 71.8398 181.746C75.0199 185.58 77.8255 182.288 77.8255 182.288C81.1958 181.297 90.9024 167.31 90.9024 167.31C90.9024 167.31 91.1283 183.283 91.583 184.454C92.0377 185.626 91.4314 188.83 91.1669 190.186C91 191.317 90.9363 192.466 90.9767 193.613C90.9767 193.613 87.3419 210.17 87.6451 211.614C87.9482 213.059 85.6746 219.827 85.6746 219.827V225.467C85.6746 225.467 94.5758 225.06 95.0662 222.67C95.5566 220.281 92.8342 219.24 92.8342 219.24V218.652C94.6175 217.569 94.9533 210.127 94.9533 210.127C94.9533 210.127 97.6073 200.923 97.9848 199.39C98.3622 197.857 97.9848 195.553 97.9848 195.553L98.2493 193.57C98.2493 193.57 98.8169 192.214 98.8169 191.945C98.8911 191.258 99.1133 190.606 99.4619 190.051C99.8779 189.464 99.0071 188.065 99.0071 188.065L99.765 185.718V183.148L101.548 173.809C101.548 173.809 103.406 162.934 102.761 159.369C102.116 155.804 103.519 154.002 103.519 154.002C100.478 155.9 98.9447 151.676 98.4425 149.86C98.3147 149.393 98.2522 149.082 98.2522 149.082C98.2522 149.082 94.0765 147.248 90.1891 147.687C89.3996 147.763 88.6216 147.959 87.8739 148.271C83.5556 150.122 82.875 157.79 82.875 157.79L79.05 164.74C77.0795 170.921 74.1253 171.551 74.1253 171.551C74.1253 171.551 67.1946 166.003 66.9925 165.731C66.7904 165.458 64.1512 164.106 64.1512 164.106C63.8392 163.452 63.3618 162.931 62.787 162.619C61.8776 162.166 61.8033 160.495 61.8033 160.495C61.6904 156.569 59.7586 156.247 59.7586 156.247C53.0537 155.581 53.0923 163.837 53.0923 164.963Z" fill="#3F3D56"/>
<path d="M91.6512 142.904H95.7407V127.791H91.6512V142.904Z" fill="#F86D70"/>
<path opacity="0.1" d="M91.6512 142.904H95.7407V127.791H91.6512V142.904Z" fill="black"/>
<path opacity="0.1" d="M102.369 96.8826C102.368 96.8932 102.368 96.9038 102.369 96.9144C102.4 96.9985 102.438 97.079 102.482 97.1552L103.617 99.1376L106.571 99.4916L106.604 98.0968C105.682 98.0119 103.584 97.711 102.369 96.8826Z" fill="black"/>
<path d="M102.484 97.155C102.484 97.155 102.636 105.092 100.969 106.175C99.3012 107.259 98.6533 112.901 98.6533 112.901C98.6533 112.901 103.706 116.859 104.832 118.601C105.959 120.343 108.544 124.492 108.012 125.483C107.48 126.474 109.302 130.988 109.302 130.988C109.302 130.988 105.967 139.109 106.725 142.178C107.483 145.248 107.558 153.365 107.558 153.365H108.999C108.999 153.365 108.544 146.688 108.544 143.98C108.544 141.272 110.057 131.618 110.057 131.618C110.057 131.618 110.741 122.145 110.057 121.876C109.373 121.607 105.361 117.815 105.058 116.098C104.755 114.381 107.18 98.3976 107.18 98.3976C107.18 98.3976 104.074 98.2383 102.484 97.155Z" fill="#F86D70"/>
<path opacity="0.1" d="M91.5742 126.389C91.7125 127.494 92.0501 128.549 92.5639 129.483L95.3636 128.917C95.3636 128.917 103.771 126.658 105.507 126.474C106.559 126.309 107.584 125.961 108.55 125.441C107.884 122.629 106.584 120.088 104.791 118.095L103.724 116.916C102.152 115.177 100.329 113.79 98.3445 112.82C98.4693 112.944 107.29 121.915 105.358 123.674C103.427 125.433 98.2256 121.15 98.2256 121.15L92.3113 115.096L92.0973 114.877L91.7555 115.511C91.9294 115.596 92.0991 115.693 92.2637 115.801C94.2794 117.119 95.7753 119.333 96.4246 121.961C97.6401 126.828 91.5742 126.389 91.5742 126.389Z" fill="black"/>
<path d="M89.7554 148.947C89.7554 148.947 95.3606 152.646 96.7218 150.572C97.019 150.115 97.6461 149.917 98.4277 149.864C98.2999 149.397 98.2375 149.085 98.2375 149.085C98.2375 149.085 94.0618 147.251 90.1744 147.69C89.9188 148.455 89.7554 148.947 89.7554 148.947Z" fill="#444053"/>
<path d="M92.3351 114.884L98.4634 121.164C98.4634 121.164 103.644 125.462 105.596 123.688C107.549 121.915 98.5793 112.831 98.5793 112.831C100.56 113.803 102.38 115.187 103.956 116.916L105.023 118.095C107.828 121.193 108.461 121.193 108.556 125.745C108.58 126.867 108.259 128.478 108.013 128.768C107.103 129.83 106.467 137.544 106.607 138.447C106.746 139.35 104.913 147.142 105.507 149.308C106.102 151.475 98.0771 148.225 96.7188 150.303C95.3606 152.381 89.7554 148.678 89.7554 148.678C89.7554 148.678 92.8611 139.201 93.619 138.571C94.3769 137.941 95.2863 133.066 93.619 130.811C91.9517 128.556 91.8031 126.389 91.8031 126.389C91.8031 126.389 97.866 126.836 96.6505 121.968C96.3085 120.557 95.7152 119.25 94.911 118.137C94.1068 117.024 93.1106 116.131 91.9903 115.518L92.3351 114.884Z" fill="#E8E8F0"/>
<path opacity="0.1" d="M100.514 130.857C100.514 130.857 98.1632 136.135 95.1228 137.505C95.0248 137.548 94.9297 137.587 94.8256 137.622C91.6515 138.773 100.752 132.492 100.514 130.857Z" fill="black"/>
<path d="M67.6377 84.1594C67.6377 84.1594 68.773 87.5898 69.6825 88.7616C70.5919 89.9333 77.3325 101.665 77.3325 101.665L77.9031 103.081L78.3935 104.289L82.7118 103.747L83.009 101.672L82.8426 101.432C82.4087 100.812 81.2258 99.1483 80.4323 98.4225C79.4485 97.5234 77.4781 94.5461 77.4781 94.5461C77.4781 94.5461 71.3438 86.9632 70.8891 84.8887C70.4344 82.8141 64.2971 70.3742 62.936 72.5266C61.5748 74.6789 67.6377 84.1594 67.6377 84.1594Z" fill="#FBBEBE"/>
<g opacity="0.1">
<path opacity="0.1" d="M80.1673 139.962C79.6489 139.909 79.1272 139.998 78.6427 140.224C77.5727 140.844 77.3706 142.518 76.7762 143.746C76.0808 145.184 74.7552 146.072 73.3911 146.402C73.1199 146.464 72.8461 146.509 72.5708 146.536C73.4396 146.637 74.316 146.591 75.1743 146.402C76.5385 146.072 77.864 145.184 78.5594 143.746C79.1538 142.518 79.3559 140.844 80.4259 140.224C80.7068 140.073 81.0096 139.989 81.3175 139.976L80.1673 139.962Z" fill="black"/>
<path opacity="0.1" d="M90.7241 112.806C90.7241 109.991 92.2606 107.567 93.5267 105.191C94.7928 102.816 95.8568 99.8172 94.8552 97.2683C93.9993 95.0911 88.8398 92.1705 85.8618 92.7476C88.7774 93.1972 92.3706 95.4841 93.072 97.2683C94.0736 99.8172 93.0096 102.816 91.7435 105.191C90.4774 107.567 88.9349 109.991 88.9409 112.806C88.9409 116.438 88.7358 119.178 87.8977 122.686C87.6569 123.695 89.9781 125.221 89.6215 126.177C88.4148 129.363 88.9795 133.038 88.7863 136.521C88.7823 137.202 88.6428 137.871 88.3791 138.475C87.7847 139.64 86.5662 139.941 85.3804 140.005H86.4176C87.8026 140.005 89.4461 139.877 90.1624 138.465C90.426 137.861 90.5655 137.191 90.5695 136.511C90.7627 133.027 90.198 129.349 91.4047 126.166C91.7673 125.21 89.4402 123.688 89.6809 122.676C90.519 119.192 90.73 116.438 90.7241 112.806Z" fill="black"/>
</g>
<path opacity="0.1" d="M77.9028 103.074L78.3932 104.281L82.7116 103.74L83.0088 101.665L82.8423 101.425C82.3817 101.694 78.9312 103.673 77.9028 103.074Z" fill="black"/>
<path opacity="0.1" d="M93.8477 116.644C93.8477 116.644 92.7867 114.661 92.1804 115.199C91.5741 115.737 91.3393 113.574 90.9915 113.935C90.6438 114.296 89.6304 115.302 89.2083 113.896C88.8784 112.778 85.2882 105.701 83.8319 102.855C83.4575 102.118 83.2227 101.665 83.2227 101.665C83.2227 101.665 79.1332 104.101 78.1494 103.29V105.004L78.9816 105.096L83.4396 115.008C83.4396 115.008 84.8424 117.667 84.7473 118.594C84.6522 119.522 86.5454 123.582 86.8485 123.851C87.1517 124.12 90.415 128.634 90.415 128.634C90.415 128.634 92.0823 138.38 90.6409 141.088C89.1994 143.796 86.7029 145.779 86.7029 145.779C86.7029 145.779 85.951 148.395 86.061 148.667C86.1709 148.94 85.1872 150.112 85.6419 150.473C86.0966 150.834 86.7029 153.358 86.7029 153.358C86.7029 153.358 88.8249 149.298 89.9721 148.667C91.1193 148.037 92.5875 139.732 92.5875 139.732C92.5875 139.732 93.0066 134.84 93.0393 131.682C93.072 128.524 92.9382 116.644 93.8477 116.644Z" fill="black"/>
<path d="M93.6187 116.644C93.6187 116.644 92.5606 114.661 91.9543 115.199C91.348 115.737 91.1103 113.574 90.7655 113.935C90.4208 114.296 89.4073 115.302 88.9823 113.896C88.6494 112.778 85.0592 105.701 83.6059 102.855L82.9966 101.665C82.9966 101.665 78.9071 104.101 77.9204 103.29V105.004L78.7555 105.096L83.2136 115.008C83.2136 115.008 84.6194 117.667 84.5213 118.594C84.4232 119.522 86.3045 123.582 86.6225 123.851C86.9405 124.12 90.1889 128.634 90.1889 128.634C90.1889 128.634 91.8563 138.38 90.4178 141.088C89.6579 142.448 88.7335 143.667 87.6746 144.706C86.7851 145.58 86.1591 146.776 85.8914 148.112C85.8398 148.294 85.8216 148.487 85.8379 148.678C85.9479 148.947 84.9641 150.122 85.4188 150.484C85.8736 150.845 86.4858 153.379 86.4858 153.379C86.4858 153.379 88.6078 149.319 89.755 148.689C90.9022 148.059 92.3734 139.753 92.3734 139.753C92.3734 139.753 92.7895 134.861 92.8251 131.703C92.8608 128.545 92.7271 116.644 93.6187 116.644Z" fill="#F86D70"/>
<path opacity="0.1" d="M83.2404 157.702C83.2404 157.702 86.4235 158.41 87.6985 159.504C88.9735 160.598 82.8511 157.79 82.8511 157.79L83.2404 157.702Z" fill="black"/>
<path opacity="0.1" d="M90.8936 167.31C90.8936 167.31 94.2133 170.606 93.6189 173.583C93.0245 176.56 91.4909 184.051 91.4909 184.051L90.8936 167.31Z" fill="black"/>
<path opacity="0.1" d="M61.8596 160.973C61.8596 160.973 57.1817 161.582 57.4848 162.304C57.788 163.026 61.8596 161.638 61.8596 161.638V160.973Z" fill="black"/>
<path opacity="0.1" d="M97.7795 188.381C97.7795 188.381 98.0767 188.83 96.3411 188.381C94.6054 187.931 95.8864 186.543 95.8864 186.543L97.7795 188.381Z" fill="black"/>
<path opacity="0.1" d="M97.1851 194.608C97.1851 194.608 94.8075 195.057 93.5325 194.608C92.2575 194.158 97.1851 194.608 97.1851 194.608Z" fill="black"/>
<path opacity="0.1" d="M92.2934 218.971C92.2934 218.971 91.8773 218.429 89.794 219.42C87.7106 220.412 86.8784 220.458 86.2721 220.128C85.6658 219.799 92.2934 218.971 92.2934 218.971Z" fill="black"/>
<path opacity="0.1" d="M94.6056 160.205L91.6514 165.101C91.6514 165.101 93.2414 160.813 94.6056 160.205Z" fill="black"/>
<path opacity="0.1" d="M88.8635 115.199C88.8635 115.199 88.7357 116.824 86.8306 117.458C84.9256 118.091 84.563 118.605 84.563 118.605" fill="black"/>
<path opacity="0.1" d="M83.9121 103.421C83.9121 103.421 81.3977 105.545 78.7734 105.096L83.9121 103.421Z" fill="black"/>
<path opacity="0.1" d="M85.8262 148.901C85.8262 148.901 86.5603 149.45 88.3227 147.05L85.8262 148.901Z" fill="black"/>
<path opacity="0.1" d="M104.131 123.451C104.202 123.012 103.947 122.605 103.706 122.262L103.213 121.554C103.116 121.409 103.008 121.276 102.889 121.157C102.591 120.885 102.211 120.803 101.902 120.559" fill="black"/>
<path opacity="0.1" d="M263.705 0.0390554C263.705 0.0390554 238.683 -1.75932 241.626 19.1274C241.626 19.1274 241.031 22.8197 243.849 24.4942C243.849 24.4942 243.893 22.9472 246.417 23.4747C247.315 23.652 248.228 23.7043 249.136 23.6304C250.363 23.5295 251.53 22.9554 252.459 21.9949C252.459 21.9949 259.494 18.5327 262.228 4.83946C262.228 4.83946 264.252 1.8516 264.172 1.08339L259.948 3.23224C259.948 3.23224 261.393 6.86087 260.246 9.87705C260.246 9.87705 260.109 3.36323 259.298 3.50483C259.134 3.5367 257.104 4.76158 257.104 4.76158C257.104 4.76158 259.586 11.0807 257.713 15.6758C257.713 15.6758 258.424 7.8875 256.328 5.21825L253.356 7.28569C253.356 7.28569 256.257 13.8137 254.29 19.1416C254.29 19.1416 254.795 10.971 252.729 7.78838L250.037 10.2912C250.037 10.2912 252.762 16.7272 251.101 21.1453C251.101 21.1453 250.884 11.633 249.454 10.9143C249.454 10.9143 247.097 13.3924 246.738 14.4049C246.738 14.4049 248.604 19.0778 247.445 21.5418C247.445 21.5418 246.735 15.2049 246.152 15.1695C246.152 15.1695 243.804 19.3681 243.561 22.2498C243.561 22.2498 243.662 17.9698 245.585 14.773C245.585 14.773 243.314 15.2368 241.988 16.9892C241.988 16.9892 242.354 14.0225 246.164 13.7641C246.164 13.7641 248.105 10.578 248.622 10.3833C248.622 10.3833 244.836 10.008 242.538 11.2188C242.538 11.2188 244.559 8.41852 249.317 9.69296L251.977 7.10514C251.977 7.10514 246.99 6.29445 244.874 7.1901C244.874 7.1901 247.308 4.71201 252.694 6.51748L255.588 4.45713C255.588 4.45713 251.335 3.36677 248.803 3.7491C248.803 3.7491 251.478 2.03215 256.438 3.89425L258.519 2.78619C258.519 2.78619 255.404 2.05693 254.492 1.9401C253.579 1.82328 253.532 1.52591 253.532 1.52591C255.505 1.13396 257.531 1.40236 259.384 2.3012C259.384 2.3012 263.782 0.368287 263.705 0.0390554Z" fill="#72B874"/>
<path opacity="0.1" d="M232.844 5.35259C232.844 5.35259 221.55 4.53836 222.872 13.9763C222.872 13.9763 222.608 15.6473 223.874 16.4049C223.874 16.4049 223.895 15.6968 225.036 15.9411C225.441 16.0224 225.853 16.0461 226.263 16.0119C226.818 15.967 227.345 15.7071 227.764 15.272C227.764 15.272 230.944 13.7108 232.181 7.52269C232.181 7.52269 233.093 6.17036 233.058 5.82343L231.149 6.79342C231.149 6.79342 231.803 8.43604 231.289 9.79898C231.289 9.79898 231.227 6.8536 230.861 6.92441C230.787 6.92441 229.869 7.49082 229.869 7.49082C229.869 7.49082 230.992 10.3477 230.145 12.4258C230.145 12.4258 230.466 8.90688 229.518 7.69969L228.174 8.63429C228.174 8.63429 229.488 11.5832 228.596 13.9905C228.596 13.9905 228.825 10.2981 227.892 8.86085L226.677 10.0043C226.677 10.0043 227.907 12.9143 227.158 14.9074C227.158 14.9074 227.06 10.6097 226.412 10.2875C226.412 10.2875 225.348 11.4062 225.185 11.8664C225.185 11.8664 226.029 13.9905 225.506 15.0879C225.506 15.0879 225.185 12.224 224.911 12.2133C224.911 12.2133 223.853 14.1109 223.74 15.3995C223.793 14.1968 224.109 13.0315 224.656 12.0186C224.043 12.1568 223.478 12.505 223.03 13.0205C223.03 13.0205 223.196 11.6823 224.917 11.562C224.917 11.562 225.809 10.1247 226.029 10.0362C226.029 10.0362 224.317 9.86625 223.28 10.415C223.28 10.415 224.192 9.1476 226.344 9.70694L227.533 8.5387C227.533 8.5387 225.28 8.18469 224.323 8.57764C224.323 8.57764 225.422 7.45896 227.856 8.27319L229.164 7.34214C229.164 7.34214 227.244 6.84652 226.097 7.02707C226.097 7.02707 227.307 6.24824 229.548 7.09079L230.484 6.59163C230.484 6.59163 229.075 6.25886 228.662 6.2093C228.249 6.15974 228.228 6.02167 228.228 6.02167C229.12 5.84489 230.036 5.96747 230.873 6.37569C230.873 6.37569 232.879 5.50128 232.844 5.35259Z" fill="#72B874"/>
<path d="M272.294 230.377C278.894 230.377 284.245 229.299 284.245 227.97C284.245 226.64 278.894 225.562 272.294 225.562C265.694 225.562 260.344 226.64 260.344 227.97C260.344 229.299 265.694 230.377 272.294 230.377Z" fill="#72B874"/>
<path d="M277.237 224.033C277.782 223.504 278.179 222.789 278.375 221.983C278.523 221.173 278.232 220.213 277.578 219.898C276.847 219.565 276.066 220.171 275.474 220.78C274.883 221.389 274.202 222.086 273.429 221.955C273.828 221.524 274.126 220.978 274.294 220.369C274.463 219.761 274.497 219.111 274.392 218.482C274.359 218.222 274.266 217.977 274.125 217.774C273.718 217.257 272.984 217.477 272.496 217.884C270.951 219.18 270.52 221.682 270.511 223.93C270.356 223.12 270.487 222.274 270.484 221.452C270.481 220.631 270.288 219.682 269.697 219.247C269.332 219.013 268.922 218.898 268.508 218.914C267.815 218.882 267.04 218.967 266.567 219.573C265.973 220.323 266.13 221.583 266.641 222.405C267.152 223.226 267.934 223.753 268.653 224.323C269.229 224.732 269.719 225.29 270.089 225.955C270.133 226.048 270.169 226.147 270.196 226.249H274.553C275.527 225.658 276.43 224.913 277.237 224.033Z" fill="#72B874"/>
</g>
<defs>
<linearGradient id="paint0_linear" x1="240.292" y1="178.751" x2="240.292" y2="36.3322" gradientUnits="userSpaceOnUse">
<stop stop-color="#808080" stop-opacity="0.25"/>
<stop offset="0.54" stop-color="#808080" stop-opacity="0.12"/>
<stop offset="1" stop-color="#808080" stop-opacity="0.1"/>
</linearGradient>
<linearGradient id="paint1_linear" x1="11844" y1="88710" x2="26523.3" y2="88710" gradientUnits="userSpaceOnUse">
<stop stop-color="#808080" stop-opacity="0.25"/>
<stop offset="0.54" stop-color="#808080" stop-opacity="0.12"/>
<stop offset="1" stop-color="#808080" stop-opacity="0.1"/>
</linearGradient>
<clipPath id="clip0">
<rect width="340" height="231" fill="white"/>
</clipPath>
</defs>
</svg>
